<?xml version="1.0" encoding="utf-8"?>
<!-- Generator: Adobe Illustrator 16.0.0, SVG Export Plug-In . SVG Version: 6.00 Build 0)  -->
<!DOCTYPE svg PUBLIC "-//W3C//DTD SVG 1.1//EN" "http://www.w3.org/Graphics/SVG/1.1/DTD/svg11.dtd">
<svg version="1.1" id="Layer_1" xmlns="http://www.w3.org/2000/svg" xmlns:xlink="http://www.w3.org/1999/xlink" x="0px" y="0px"
	 width="958.531px" height="914.088px" viewBox="18.469 86.1 958.531 914.088" enable-background="new 18.469 86.1 958.531 914.088"
	 xml:space="preserve">
<metadata><?xpacket begin="﻿" id="W5M0MpCehiHzreSzNTczkc9d"?>
<x:xmpmeta xmlns:x="adobe:ns:meta/" x:xmptk="Adobe XMP Core 5.3-c011 66.145661, 2012/02/06-14:56:27        ">
   <rdf:RDF xmlns:rdf="http://www.w3.org/1999/02/22-rdf-syntax-ns#">
      <rdf:Description rdf:about=""
            xmlns:xmp="http://ns.adobe.com/xap/1.0/"
            xmlns:xmpGImg="http://ns.adobe.com/xap/1.0/g/img/">
         <xmp:CreatorTool>Adobe Illustrator CS6 (Windows)</xmp:CreatorTool>
         <xmp:CreateDate>2023-09-25T19:10:26+02:00</xmp:CreateDate>
         <xmp:MetadataDate>2023-09-25T19:10:27+02:00</xmp:MetadataDate>
         <xmp:ModifyDate>2023-09-25T19:10:27+02:00</xmp:ModifyDate>
         <xmp:Thumbnails>
            <rdf:Alt>
               <rdf:li rdf:parseType="Resource">
                  <xmpGImg:width>256</xmpGImg:width>
                  <xmpGImg:height>244</xmpGImg:height>
                  <xmpGImg:format>JPEG</xmpGImg:format>
                  <xmpGImg:image>/9j/4AAQSkZJRgABAgEASABIAAD/7QAsUGhvdG9zaG9wIDMuMAA4QklNA+0AAAAAABAASAAAAAEA&#xA;AQBIAAAAAQAB/+4ADkFkb2JlAGTAAAAAAf/bAIQABgQEBAUEBgUFBgkGBQYJCwgGBggLDAoKCwoK&#xA;DBAMDAwMDAwQDA4PEA8ODBMTFBQTExwbGxscHx8fHx8fHx8fHwEHBwcNDA0YEBAYGhURFRofHx8f&#xA;Hx8fHx8fHx8fHx8fHx8fHx8fHx8fHx8fHx8fHx8fHx8fHx8fHx8fHx8fHx8f/8AAEQgA9AEAAwER&#xA;AAIRAQMRAf/EAaIAAAAHAQEBAQEAAAAAAAAAAAQFAwIGAQAHCAkKCwEAAgIDAQEBAQEAAAAAAAAA&#xA;AQACAwQFBgcICQoLEAACAQMDAgQCBgcDBAIGAnMBAgMRBAAFIRIxQVEGE2EicYEUMpGhBxWxQiPB&#xA;UtHhMxZi8CRygvElQzRTkqKyY3PCNUQnk6OzNhdUZHTD0uIIJoMJChgZhJRFRqS0VtNVKBry4/PE&#xA;1OT0ZXWFlaW1xdXl9WZ2hpamtsbW5vY3R1dnd4eXp7fH1+f3OEhYaHiImKi4yNjo+Ck5SVlpeYmZ&#xA;qbnJ2en5KjpKWmp6ipqqusra6voRAAICAQIDBQUEBQYECAMDbQEAAhEDBCESMUEFURNhIgZxgZEy&#xA;obHwFMHR4SNCFVJicvEzJDRDghaSUyWiY7LCB3PSNeJEgxdUkwgJChgZJjZFGidkdFU38qOzwygp&#xA;0+PzhJSktMTU5PRldYWVpbXF1eX1RlZmdoaWprbG1ub2R1dnd4eXp7fH1+f3OEhYaHiImKi4yNjo&#xA;+DlJWWl5iZmpucnZ6fkqOkpaanqKmqq6ytrq+v/aAAwDAQACEQMRAD8A9U4q7FXYq7FXYq7FXYq7&#xA;FXYq7FXYqtlliijaSV1jjQVZ2ICgeJJwEgblMYmRoblimsfmr5H0ssr6it1Mv+6rQGY/8Gv7v72z&#xA;AzdqYIfxWfLf9ju9L7OazNuIcI75bfZz+xheqf8AOQUY5LpWklv5ZbqQD744wf8Aiea3L28P4I/P&#xA;8fpd/p/Yo/5XJ8Ij9J/UxbUPzr893RPo3ENkp2pBCp/GX1TmDk7Zzy5ER9w/XbusPspoocxKfvP6&#xA;qY/eeePON2T6+tXhB6qszov/AAKFV/DMSetzS5zl83Z4uyNJD6cUP9KD96Uz3l5PX155Ja9ebs3T&#xA;5nKJTJ5lzoYoR+kAKORZuxVWgvbyCnoTyRU6cHZevyOSjOQ5FrnihL6gD8E2tPPHnG0IMGtXgA6K&#xA;0zuv/AuWGXx1uaPKcvm4WTsjST54of6UD7mQ6b+dnnm0I9eaC+QbcZ4lBp84vSP35mY+2c8eZEve&#xA;P1U6vP7J6Kf0iUPcf12zLRvz+0uUqmr6dLat0M1uwlT5lW4MB8uWbHD27E/XGvdu6HVexmSO+KYl&#xA;5HY/p/Q9C0PzV5e12PnpV/FckCrRKaSKP8qNqOPpGbfDqseUeggvLavs7PpjWWBj93z5Jrl7hOxV&#xA;2KuxV2KuxV2KuxV2KuxV2KuxV2KuxV2KuxV2KpR5g82eXvL8Pq6repbkiqQ7tK/+rGtWPzpTMfPq&#xA;seIXM052i7Nz6k1iiZefT58nlfmP8+72XnD5fshbp0F3dUeSnisangp+ZbNFqO3JHbGK8y9pofY2&#xA;A3zy4j3R2Hz5/c821jzJr2tSepql/NdmtQjseCn/ACUFEX6BmmzajJkPrJL1ml0GDTiscBH7/nzS&#xA;3KXLdirsVdirsVdirsVdirsVdirsVXwzTQyrLC7RSoapIhKsCO4I3GEEg2ESiJCiLD0Tyr+dnmDT&#xA;OFvq6/pWzG3qMeNwo/1+j/7Lf3zb6XtnJDafqH2vK9o+yeDNcsX7uX+x+XT4fJ7L5a84+X/Mlv62&#xA;l3QkdRWW2f4Zo6/zIf1io986PTavHmFwPw6vA6/svPpJVljXceh+P4KdZkuvdirsVdirsVdirsVd&#xA;irsVdirsVdirsVQuqarpulWb3uo3CWtrH9qWQ0FewHck9gN8ry5YwjxSNBv0+myZpiGMGUj0Dxvz&#xA;j+eV7cl7Ty3GbWDcG/lAMrDp8CGqoPc1PyzndX21I7Yth39Xvey/ZGEKlqDxH+aOXxPX7ve8subq&#xA;5up3uLqV555DWSWRi7sfEsak5opSMjZNl7LHjjCIjEARHQKWBm7FXYq7FXYq7FXYq7FXYq7FXYq7&#xA;FXYq7FXYqrWV7eWNzHdWcz29zEaxzRsVYH2IyUJmJuJoteXFDJExmBKJ6F7N5E/OuG4Men+ZysM5&#xA;IWPUlAWNq/7+UbIf8obfLOj0PbIPpy7Hv/W8D2x7JmN5NNuP5nX/ADe/3c/e9ZR0dFdGDIwBVgag&#xA;g7ggjN+DbxJBBot4odirsVdirsVdirsVdirsVdirEvPP5j6N5VhMTn61qrrWGxQ7ivRpW/YX8T2z&#xA;X63tCGAVzl3frd52R2Fm1hsenH1l+rvL5+8y+bNb8yXxu9UnMlK+jAtVijB7Inb59T3zk9Tqp5pX&#xA;I/qfT9B2bh0kOHGK7z1PvKT5juc7FXYq7FXYq7FXYq7FXYq7FXYq7FXYq7FXYq7FXYq7FXYqz38v&#xA;PzS1Dy5IljflrvRGNPT6yQV/air28U+6nfaaDtOWE8Mt4fd7v1PNdt+zsNWDOHpzfZL3/rfQOnaj&#xA;Y6lZQ31jMtxaTryilToR/A+IPTOtx5IziJRNgvmGfBPFMwmOGQ5hEZNqdirsVdirsVdirsVdirzn&#xA;8zPzUi0BZNJ0hll1llpJLsyW1fEGoZ6dF7d/DNP2l2mMXoh9f3fter7A9nTqay5dsXd/O/Z5/J4H&#xA;c3NxdXElxcyNNPKxeSVyWZmPUknOUlIyNncvpmPHGERGIqI6KeBk7FXYq7FXYq7FXYq7FXYq7FXY&#xA;q7FXYq7FXYq7FXYq7FXYq7FXYqzH8u/zEvfKt76UvKfR52/0m27qenqR16MO4/a+4jYdn9oSwSo7&#xA;wPMfpDoe3Ow4a2FjbKOR/QfL7n0dYX9nqFlDe2cqzWtwoeKVehU/57jOxhMTiJRNgvlObDPFMwmK&#xA;lHmFfJtTsVdirsVdirsVedfmp+ZS6BAdJ0qQHWplq8goRbxt+0f+LD+yPpPaun7T7R8IcEPrP2ft&#xA;eq9newfzMvFyj90P9kf1d/y73gEkkkkjSSMXkclndiSxYmpJJ6k5yZN7l9OjEAUOS3FLsVdirsVd&#xA;irsVR+n6DreoxtJYWFxcxLs0sUbMgPuwHEZbjwTnvGJLjZtZhxGpzjE+ZFpr+hb7TrUNrHlm5NuB&#xA;U3ievAxHvIwmh/4TL/BlAevGa79x+sfY4X5uGWX7rPHi/m+mX2emX2qS6Z5Y1AU07UJLC6Oy2upB&#xA;fTY+AuoqKP8AZxqPfI+Hin9MuE90v+KH6QGw6jU4v7yAnHvhz/0h/RInySjUNOvtPumtb2FoJ0oS&#xA;jdwejAjZlPYjY5j5McoGpCi5uHPDLHigbCHyLa7FXYq7FXYq7FXYq7FXYq7FXYq7FXYq9D/Kb8wm&#xA;0C/GlajJ/uGvH2djtBKdg/sjftff412/Zev8KXBL6D9jy3tJ2J+Zh4uMfvY/7Id3v7vk+g8618vd&#xA;irsVdirsVYp+YvniDyroxkTjJql1VLGA9K95GH8qV+k7Zgdoa0YIX/EeTu+w+yJa3NR2xx+o/o95&#xA;fNN3d3N5dS3V1I01xOxeWVzVmZjUk5xc5GRs7kvrePHGERGIqI5BSwM3Yq7FXYq7FXYq7FUXbW+r&#xA;apLHa20c97Kg4xQxh5SFHZVFaDLIxnM0Lk0ZJ4sIMpGMB1JoM58t/lX+ZayrcWz/AKFPUSvOY2p/&#xA;qw82+hhmz0/Zmpux6Pj+p53X+0XZ5HDL975cN/7qh8mZT/kwdUs+WsX0K6sGFL2zgEfNe4mSqq7e&#xA;DBVPjyzYy7H4x6yOPvA+/wDAdBD2q8Gf7qB8L+bKV1/VPMe6yO6kQv5L2cmiPpd7qj3QjPLTrgwq&#xA;slsaksqnkeUbV3Q7V3FDk/5HBhwSlfdty/Z5NR9qpjN4sMYjf1C9pfZsR3/ApFJ/zjzKF/d68rNX&#xA;o1qVFPmJmzFPYB6T+z9rso+2464v9n/x1Qk/5x81IU9PWIW8eULr+pmyJ7Bl0kPk2R9tcfXHL5j9&#xA;SW3f5D+cYlLQT2dz/krI6t/w6BfxyifYeYcjE/j3OXj9sdJL6hOPwH6CxjVvy986aUC15pM/pr1l&#xA;iAmQDxLRFwPpzCy6DNDnE/f9zuNN23pM30ZI357H7aY8QQaHYjqMxHaOxV2KuxV2KuxV2KuxV2Ku&#xA;xV79+THnVtX0htFvZOWoaao9Jj1ktvsqfnGfhPtT3zq+x9Z4kOCX1R+79j5l7Vdk+Bl8aA9GTn5S&#xA;/bz+b0jNy8m7FXYqhdV1Oz0vTrjUb1/TtbVDJK3eg7AdyTsB45XlyRhEylyDdptPPNkGOAuUjQfL&#xA;fm3zNe+ZNcn1S6JHM8YIa1EUS/ZQfrPianOH1WplmmZH8B9k7N7PhpMIxx+J7z1KT5jue7FXYq7F&#xA;XYq7FUZpOj6pq96llpts91cv0jQVoP5mPRQPE7ZZiwyyS4Yiy0anVY8EDPJIRi9h8qfkTZQqlz5k&#xA;nNzNs31GBisQ9nk2Zv8AY0+ZzodL2JEb5TfkHhO0vbCcrjpxwj+cefwHIfG3p+m6VpmmW4ttOtYr&#xA;SAf7rhQICfE06n3ObvHijAVEAB47PqcmaXFkkZHzKKyxpdirsVdirsVdirsVSTXvJXlfXVb9JafF&#xA;LK3/AB8KPTm/5GJRvvzFz6PFl+qI/S7HR9ranTf3cyB3cx8i8q81fkTqNqHuPL1x9dhFT9TnIWYD&#xA;/JfZH/4XNFquxJR3xm/I83tOzvbDHP05xwH+cOXy5j7Xl11aXVpcPbXULwXER4yRSKUdT4FTuM0c&#xA;omJoii9jjyRnESiQYnqFLAzdirsVdirsVdirsVTXytr9xoGv2eqwVJt3BljH7cbfDIn0qTl+mznF&#xA;kEx0cLtHRR1OCWI/xD5Hofm+rLW5gurWG6gYPBOiyxOOjI4DKfpBzu4yEgCORfFsmMwkYy2INH4K&#xA;uSYOxV4h+ePnI3V8nluzf/R7QiS/I/amIqqfJAan3PtnMdtavil4Q5Dn730T2R7L4IHUTHqltH3d&#xA;/wAfu97yjNE9q7FXYq7FXYq7FWTeR/Ieq+bL4xwfuLCEj63esKqtf2VH7TkdvvzN0WhnnlttEcy6&#xA;jtftnFooXLeZ5R/HIPory35W0Xy5YCz0yARrt6sxoZZWH7Ujd/1DtnX6fTQwx4Yh8r1/aObVT48h&#xA;vuHQe5NsyHBdirsVdirsVdirsVUrq7tbSB7i7mS3gjFXllYIgHuzUGRlMRFk0GePFKcuGIMpHoN2&#xA;E6p+dXkaxlMcc09+ymjG1jqtfZpDGD9GazL2xgiaBMvd+2nodP7KazILIjD+sf1WmflD8xvLvmqa&#xA;a30/1orqFfUaC4VVcpXiWXgzqQCRXfvl+k7Qx5yRG7He4nafYefRgSyUYna49/xAZRmc6Zj3m/yL&#xA;oXmi1Md9Fwu1WlvfRgCVD23/AGl/yT+HXMPV6LHnHqG/e7XsztjNo5XA3HrE8j+o+b5483+TdY8r&#xA;6ibW/TlC9TbXaA+nKo8CejDuvb8c5HV6OeCVS+B731LsztTFrMfFA79Y9R+OhSHMV2TsVdirsVdi&#xA;rsVdir6E/JHXjqPlI2Mjcp9LkMO/X0n+OMn/AIZR8s63sbPx4eE84/c+X+1uj8LVcY5ZBfxGx/Qf&#xA;i9CzbvLJN5w8xReXvLt5qr0Z4UpAh/alf4Y1+XI7+2Y2r1Aw4zPu+9z+y9CdVqI4h1O/u6vla5uJ&#xA;7m4lubhzLPM7SSyNuWdjVifmc4WUjI2eZfaMcIwiIxFAbBTwMnYq7FXYq7FU/wDJXlC+8061HYW9&#xA;Y4Fo95c0qI4gdz7seij+FcytHpJZ58I5dS6ztbtOGjwmctz/AAjvP6u99MaTpOl6FpUVjZItvZ2y&#xA;0BNB83dtqsepOdrixRxQEY7APkWp1OTUZTOZ4py/FBCXPnXyhbMUn1qyVxXknrxlhTxAJIyuWswx&#xA;5zj82/H2Tqpixin/AKUqMP5g+SJjRNbtBvT45Vj/AOJ8ciNfgP8AHH5tk+xNZHnin8r+5PLa6trq&#xA;ETW0qTwt9mSNg6n5FajMmMhIWDYddkxygakCD5qmSYOxV2KuxVJ/N/mEeXvLt5q5hNwbZV4RDYFn&#xA;YIvI9lq25zH1eo8HGZ1dOf2ZovzWeOK+Hi6+7d80+ZPNmu+Y7s3OqXLSAEmK3UkRRjwROg+fXxzi&#xA;9RqsmY3I/qfXNB2bh0sOHHGu89T7yltnZXl7cJb2cElxcOaJFEpdz8gtTlMIGRoCy5eXLDHHimRG&#xA;I6nZ7x+U35b3nl31dX1Wi6lcR+lHbKQ3pRkhm5Ebc2Kjp0+nOp7K7OOH1z+o9O5819pO3YaqsWL+&#xA;7ibvvP6npGbl5N2KpT5o8t6f5j0afTL1fhkFYpQKtHIB8Lr7j8RtmPqdPHNAxk53Z+vnpcwyQ6cx&#xA;3jufL2vaJf6Hq1xpl8nC4t24kj7LKd1dfZhuM4jPhlimYy5h9i0erhqMQyQPpl+KQGVOS7FXYq7F&#xA;XYq7FXpH5E6qbXzZNYMf3eoW7AL4yQ/vF/4Tnm47Ey8OUx/nD7vwXk/bDTcelE+sJfYdvvp79nWP&#xA;mTw/8+fMhn1O10CF/wB1ZqLi6A/39IPgB/1Y9/8AZZzHbmouQxjpuff+PvfRPY7QcOOWc85bD3Dn&#xA;8z9zynNE9q7FXYq7FXYqvggmnmjghQyTSsEjjUVLMxoAB4k4YxJNDmxnMRBkdgH09+X/AJPg8r+X&#xA;4rSga+mpLfzD9qUj7IP8qdB9/fO20GkGDHX8R5vj/bXaktZnM/4BtEeX6z+zo83/AD4tvMZ1S3mP&#xA;qvoIhX0+FfRSYMefOm3I7UJ7dOhzTduRycYO/BXwt6z2OyafwyNhmv4kdK8nk2aF7Z2KvRvyX0zz&#xA;Q3mWG9s1lh0dQ31+VuQhkXiQE3oHbkRSnTrm47Hx5fFEo2Ide55T2q1Gm/LmE6OX+EdR5+Q+99AZ&#xA;1j5iofX7T6/9Q9UfXPS9f0d+XpcuHL5ctshxji4etW2+DLg469N1fnzWaXqMWo2SXcUcsKOXX0p0&#xA;MUimNyjBkbcbrgx5BONi/inUYDimYEg1XI2NxfNFZY0obU9OtNS0+40+7TnbXUbRSr0PFhTY9iOx&#xA;yGTGJxMTyLdp88sWSM4bSibDDrH8lvIds/KS2muyDUCeZqfdH6dfpzXQ7HwR6E+8u+ze1etmNpCP&#xA;uH67Zdpmi6RpURi02yhs4zTkIUVOVP5iBU/Tmwx4YQFRADo9Rq8uY3klKR8zaMyxx3Yq7FXYq8+/&#xA;ODySuuaKdUtErqmmoX2G8sA3dPmv2l+kd81Ha2i8WHGPqj9z1Hsx2t+XzeHI/u8n2S6H9B/Y+es5&#xA;J9RdirsVdirsVdirIPy/vTZeddFnBoDdxxMfBZj6Tfg+ZWgnw54Hz+/Z1nbWLxNHlj/QJ+W/6H1B&#xA;e3cFlZz3lw3CC2jaWVvBEUsx+4Z3E5iIJPIPjuLFLJMQj9UjQ+L5M1vVZ9W1e81Of+9u5XlI68Qx&#xA;2UeyjbOBzZTkmZHqX23SaaODFHHHlEUgsrch2KuxV2KuxV6h+RvlQX2ry69cpW2074Lao2a4Ydf+&#xA;eamvzIzd9i6Ximch5R5e/wDY8d7XdpeHiGCJ9U+f9X9p+4vds6l83diqHk03TpV4y2sLr1o0akfi&#xA;MgccTzAbY58g5SI+KGTy35dRg6aXaKw6MsEQI+kLkBp8Y/hj8g2nX5yKOSf+mKYgAAACgGwAy5xX&#xA;Yqt9KL1fV4L6vHj6lBy41rSvWlcFC7TxGq6LsKHYq7FXYq7FXYq7FXYq7FXYq+YPzG8sjy75ru7O&#xA;JeNnMfrFl4elIT8I/wBRgV+jOI7Q03g5TEcuYfYuwu0PzWmjM/WNpe8fr5sYzCdu7FXYq7FXYqid&#xA;NnMGo2s4NDFNG4NafZYHrk8ZqQPm1aiHFjlHvBe+/nZrp07ygbKNuM+qSCGg6+knxyH8Ap+edX2z&#xA;n4MPCOctnzP2T0fi6rjPLGL+PIfr+D55zkX1F2KuxV2KuxVVtbaa6uYraBS887rHEg6l3PFR9JOG&#xA;MTIgDmWGTIIRMpcgLL6s8r+X7Xy/oVppVuBSBB6rj9uU7u5/1mzvNNgGLGIDo+Ldoa2WpzSyy6nb&#xA;yHQJrl7hOxV2KuxV2KuxV2KtO6IpZ2CqOrE0GJKQCeSVXXm/yraGlxrFlE38jTx8v+B5VzHlq8Ue&#xA;co/MObj7M1M/pxzP+aUrl/NLyBFXlrERoK/Asr/8RQ5Qe09OP4h9rmR9ntceWM/YP0qH/K3/AMuv&#xA;+rt/073P/VLI/wArab+d9h/U2f6GNf8A6n/sof8AFL4/za/L2SvHV1FP5obhf+JRjCO1dOf4vsP6&#xA;kS9mteP8n/so/rTLTfPHlHU5kgstWt5Z5KCOIvwdiewV+JJ9sux63DM1GQtw9R2RqsI4p45ADrX6&#xA;k8zKdc7FXYq7FXl/586ELnQLXWI1rLp8vpyt/wAVTUG/ykC/fmj7cwcWMT/mn7C9j7HazgzyxHlM&#xA;WPeP2X8nhOcu+kOxV2KuxV2KuxV6N+emsG882x6erVi02BUK/wDFs37xj/wJT7s3HbebizcP80ff&#xA;+A8p7IaXg0pn1yS+wbffbznNO9W7FXYq7FXYq9C/JLQRqPm369KvKDS4zN7eq/wRg/8ADMPlm27G&#xA;wcebiPKP39Hl/a3WeFpeAfVkNfAbn9A+L6Ezrny52KuxV2KuxVjGufmV5M0ZmjutRSW4Xrb29Znr&#xA;4HhVVP8ArEZg5+0cOPnLfy3dxo+wdXqN4wIj3y2H2/oYFrH/ADkC3xJo2lAfyzXj1++KP/mvNVl7&#xA;e/mR+f6h+t6XS+xXXNk+ER+k/wDEsN1P82fPmoFgdSNrGekdqqxU+Tgep/w2a7J2rnn/ABV7tv2u&#xA;/wBP7N6LF/BxH+lv9nL7GL3mpajfPzvbqa6eteU0jSGvzYnMGeSUvqJLuMWDHjFQiI+4Uh8i2uxV&#xA;2KuxV2KvUPy8/OG701otM8wSNc6cSEivDVpYR0+Lu6D7x79M3eg7WMPTk3j39Q8f237MRy3kwDhy&#xA;dY9Je7uP2fe9yt7iC5gjuLeRZYJVDxSoQyspFQQR1BzqIyBFjk+cThKEjGQohUwsXYqlnmbSRq/l&#xA;7UdNIBa6gkjjr2fjVD9DUOUanF4mOUe8OZ2fqfAzwyfzZD5dfsfJhBBodiOozgn212KuxV2KuxV2&#xA;Kpz5zvmv/Nmr3RNRJdzcD/kK5VP+FAzI1k+LLI/0i4HZWHw9Ljj3QHzrf7UmzHc92KuxV2KuxV77&#xA;+RGmLb+U574j95fXLfF/xXEAij/guedX2JjrEZfzj9z5n7Y6jj1Qh0hH7Tv91PSc3LyTsVUru8tL&#xA;O3e5u5kt7eMVkmlYIij3Y0GRnMRFk0GePFLJIRiDKR6B5n5n/PXR7MvBoUB1CcVH1mSscAPiB9t/&#xA;+F+eaXU9twjtjHEe/o9f2f7H5clSzngHcN5fqH2+55X5h8/ea9fLLf37/V2/49If3cNPAov2v9lX&#xA;NFqNdly/Udu7o9noextNpvogOLvO5+f6qY9mI7RGaLp/6S1iw07n6f124it/U68fVcJX6K5Zhx8c&#xA;xHvIHzaNXn8LFPJz4Ik/IWyj8z/Itn5T1K0isZpZrS7iLqZypcOho4qqqKbg9Mze0tEMEgImwR1d&#xA;P7P9sT1uORmAJRPTlR5d7C81zv30H+Vn5eaZpmh22p6hbJPqt6izcplD+ijboqBh8Lcd2PWu2db2&#xA;ZoIwgJSFzl9j5f7Rdt5M2aWOEiMcDW38R63+hNvOP5a+X/MdpJSCOz1On7i+iUKeXYSBac1+e/hl&#xA;+r7Ox5hyqXe4XZfb2fSzG5lj6xP6O5836lp13pt/cWF5GY7q2do5UPZlNNvEeBzjsmMwkYnmH1jB&#xA;njlgJwNxkLCGyDaqW9tcXM6W9tE888h4xxRqXdj4Kq1JwxiZGgLLGeSMAZSIAHUplqvlLzNpNutz&#xA;qOmXFtbtQes6HgCegLDYE+By7LpcuMXKJAcTT9pafNLhxzjKXdbLPys/MibQLtNK1KQtolw1Azb/&#xA;AFd2P2x/kH9ofSO9c/sztE4jwS+g/Y6T2i7BGpgcuMfvo/7Id3v7vl7vQisrKGUgqRUEbgg51z5c&#xA;RTsVdir5V88ab+jfN+r2YHFEupGjXpRJD6if8KwzhNbj4M0h5vtHZGfxdLjn3xHzGx+1K7DTdQ1C&#xA;f0LC1lu5wpb0oEaR+I6nigJpvlEMcpmogk+TmZs+PEOKchEd5NfeoyRyRSPFKhSRCVdGBDKwNCCD&#xA;0IyJBBotkZAixuCtxS7FVS3j9WeOLpzZVqPc0wxFmmM5VEnuWyyNJI8jfadizfMmuAmzaYxoUFuK&#xA;XYq7FXYq7FX1B+WdoLXyHo0VKcoPV/5HMZf+N87fs6PDggPL793x3t/Jx63Kf6VfLb9DJszXUOxV&#xA;87fm552fXtdbT7WQnStOYxxgH4ZJhs8nv/Kvtv3zkO1dZ4uThH0R+/vfVPZrskabD4kh+9n9g6D9&#xA;J/YwLNU9K7FXYqmHl64+ra/plzWnoXcElelOEit/DLdPLhyRPcR97ja2HHgnHvhIfY9b/wCcg7bl&#xA;p+jXNP7qaaOv/GRVb/mXnQdvR9MD5l4f2JyVkyR7xE/K/wBbyTy/pw1LXdO08/Zu7mKFvZXcKT9x&#xA;zn8GPjyRj3kPca3P4WGeT+bEn5B9PebdZGheWNQ1NaBrWE+gO3qN8EQ+XNhnb6rN4WKUu4f2Pj3Z&#xA;ml/MamGP+dLf3cz9jxP8ovOl5pvmhbC7naSy1eThLzYtS4f7Em/dm+FvGvtnM9lawwy8JPpn9/e+&#xA;he03ZUMum44Cp4ht/V6j4cx+1F/n1pcVv5mtL+NQpvrekpH7TwnjyP8AsCo+jLO3MQGUS/nD7mj2&#xA;N1Blp5QP8Etvcf228yzSvXvevy48v6V5Q8nv5n1YBbueH6xLKQC8cDCscSV/aeo+ZIHbOq7PwQ0+&#xA;HxZ8yL+Hc+a9u63LrtWNNi+kHhrvl1J8h926P8k/mDYeeX1TSruwWFFj5LA7eoJbdvgblsNwSPvy&#xA;3Ra+Oq4oGNfpDi9rdiT7OEMsJ2b58qlz2/HR4X5q0RtD8xX+lMSRaylY2bqY2+KNj80YHOX1WHws&#xA;kodxfR+ztWNRghl/nD7ev2vZvyU84tqmkNod2/K901QYGPV7atB/yLPw/KmdH2Nq+OHhn6o/d+x4&#xA;H2s7L8HL40B6MnPyl+3n77elMyqpZiFUbknYDN08kBbeKHgP57aX9W83Q3yiiX9sjM3jJETGf+EC&#xA;ZyfbeLhzCX84Pp3sfqOPSmH8yR+R3++06/5x800ctX1Nl3Aiton+dXkH4JmT2Dj+qXuH4+x13trn&#xA;2x4/fI/cP0vMPNFwtz5m1e5T7M17cSL8nlYj9eaTUy4ssj3yP3vYdnwMNPjiekIj7AlmUuY7FUy8&#xA;sQG48yaTbj/d15bp/wAFKoy7TRvJEf0h97idoT4dPkl3Ql9xS3KXLdirsVdirKtF8jSan5J1bzHH&#xA;MRJpsvBbelQ6oqvKSeo4q4IzOw6IzwSyX9P4LpdV2uMOsx6cjbIOfdzA+0MVzBd0+sfKcYj8raNG&#xA;tSqWNsor1oIVGd7pRWKI/oj7nxPtKV6nIf6cv90U1y9wmI/ml5mOgeUrmWFyl7ef6LaEGhDODycf&#xA;6qAn50zX9p6nwsJI+o7B3ns92f8AmdVEEeiPqPw6fEvmfOLfXXsv5U/l75fm8uNr2vwRzi6L+gs5&#xA;pHHChKlzUgVZgdz2pTOi7L0GM4/EyC77+54L2j7bzx1HgYCRw1dcyTvTHvzW/LeLy5Mmp6Urfoe4&#xA;bg0RJYwSmpC1O/Bh0r8vDMTtTs8YTxQ+g/Y7T2c7dOqBx5f72P8Ash+t53moepbVipDKSGBqCOoO&#xA;KkW97/OVRqP5d2moJ0Wa3uQR/LLGy+/+/BnVdr+vTiXmD+Pm+aeyx8LXyxn+bKPyIP6Hl/5U24n/&#xA;ADA0dD0V5JPpjhdx+K5pOy43qI/jo9h7Rz4dDkPkB85APWPzzumh8kCMGgubuGJh4gB5P+Zeb7tq&#xA;VYK75D9bxXshj4tZf82BP3D9L59ilkilSWNikkbBkYdQwNQRnJA0bD6fKIkKPIsk88+er7zbd2s1&#xA;zAlslpF6aRoS1WahdySB9ojYdszdbrZaggkVTqeyOx4aKMhEmXEb/UEj0q0F5qdnZk0FzPHCT/xk&#xA;cL/HMXFDikB3l2Ooy+HjlP8AmxJ+Qe3fnvffVfKtjp0PwLdXA5KOnpwITx/4IrnTdtz4cQiOp+58&#xA;89jsPHqZZD/DH7Sf7WEfkctwfPCmIH01tZjOf8j4QP8Ah+OazsW/H27i9F7XGP5PfnxCvf8A2Whf&#xA;zlKn8wb8AgkJAGp2Poqd/oyvtf8AxiXw+5u9lv8AEYe+X+6KR+TPMEnl/wAy2OpgkRRSBblR3hf4&#xA;ZBT/AFTUe+Y2jz+FlEvn7nY9q6IanTzx9SNveOT2T84nu9Qg0Py/ZyUGsXDsxQ15rCqkDwIrID86&#xA;Z0XaxMxDHH+M/c8F7LiOI5c8x/dRHwv+xOvyq1Q6j5F0x3fnLbq1tJU1I9Fiqg/7DjmT2Xl48EfL&#xA;b5Ov9o9P4WtmANper5/ttiH/ADkJbqbLRrnbkkk8de9HVG/40zX9vR9MD73e+xMzx5Y+UT9/600/&#xA;K1V0P8rp9VccS4ur5q+EYKL94iy/sweFpTP3n8fJwvaE/mO0hiHThh89/wBLwJmLEsxJYmpJ6k5y&#xA;j6aBTWKuxVlP5X2huvPujx0rwmMx/wCeKNJ/xrmd2bDi1ER5/c6b2gy8GiyHyr5kD9LH9Ttzbald&#xA;2xFDBNJHTpTg5X+GYmSPDIjuLtNPPjxxl3xB+xDZBtV7Gyub69gsrVDJc3MixQxjaruaAVOShAyk&#xA;IjmWvNljjgZyNRiLK27tbi0uprW5jMVxA7RzRt1V0NGB+RGCUTEkHmE48kZxEom4kWHtH5Ixx3/k&#xA;vW9KkoUmnkVwf5Z4Fj/41zpOxgJ4Zw8/vDwHtbI4tXiyjpEf7GRP6XikkbxyNG44uhKsvgQaHOaI&#xA;p9BjIEWH1f5TkEnlXRpAKB7G2YA+8KnO90pvFA/0R9z4p2lGtTkH9OX+6LFPMfmiC5aWW6u57Xy3&#xA;DObOKOy5fW9SulNJEiZaMIUNVJUjka75gajUiVkkjGDW3OZ8vJ3Wh7PlAARjGWcx4jxfTij0J/pH&#xA;nvyHRjur+VfKPmzSL9fLtjcaV5i0sCSTTrlXimcFahXjZnqXHRq1rSuxzDy6XDngfDBjkj0PN2um&#xA;7R1WiywOonHJgybcUaIHuNDl1HyeN5zr3r3vz440n8nbayiPH1YLO2qO+yu//BcDnVa4+HoxEd0Q&#xA;+adjjx+1pTPSU5feB97f5data+dfItzoGrN6txbILacndzGRWCUV/aUr961749n5RqcBxz5jb9RR&#xA;25ppdn62OfFtGR4h7/4h7j+l4lrujXmi6vdaXeClxauUYjow6qw9mUgjOaz4TjmYHmH0PR6qGoxR&#xA;yQ+mQ/HyQGVOS+gLuM6v+R4H22TTI3r72fFj0/4w51kx4mh/zP8Ac/2PmOOXgds/8lT/ALP/AKSe&#xA;b/kx/wCTAsf+Mc//ACZbNN2P/jA+P3PWe1X+Iy98f90Hon5+/wDKHWf/AG0Y/wDkxNm37d/uR/W/&#xA;QXlfYz/G5f8ACz/uovA85V9MdiqbeUXVPNmiu4qi39qWHXYTKTl+kNZYf1h97hdpgnS5QP8AU5f7&#xA;kvVf+cgY3kttCjjUvI8s6oiipJIjAAAze9vCxD3n9DxfsWQJZSeVR/SyH8sfIz+VtElurmL1NavF&#xA;5zxqVqiqKpArEha1+0a0r8szOzdF4ELI9Z/FOq9oO1xrMwjE1ijy8++X6vL3vFPPFn5mXXrnUNes&#xA;pbOe+kaReYqlOgRHFVbgtB1zmtbDL4hlkFGT6F2Rl05wxx4JCUYCvP3kebHsxHaPXZ9aabyh5G8y&#xA;zNX9DXy2t63cICFJJ67xwj786CWa8OHKf4JUfx7g8NDSCOq1WnH+VhxR9/P75Jx5R1K18necdZ8s&#xA;6lKtrp99L9e0meRgsREn7PI7bii18VzI0mQafNPFI1GRuP4/HJwO09PLXaTHqMY4pwHBMDnt+L9x&#xA;S389PMGjX1hp+nWV1Dd3cdw0kqQsJCgCFaMVqASW6ZT23nhKMYxIJty/ZDRZcc55JxMYmNb7Xunv&#xA;5gFfLv5TJpi/DK0NtYA+LbNL/wAEqPmVr/3Ok4fIR/W67sX/AArtQ5Olyn+r7w+f85N9OdirsVej&#xA;fkTY+v5xluSPhtLSRwf8p2VAP+BZs3HYkLzE9weU9sM3DpBH+dMfZZ/Ux/8AMrTzYeetYhIoJLg3&#xA;C+BFwBLt/wAHmJ2jj4c8h53893adg5/E0WM90a/0vp/QxnMJ26feQmA866GSQB9dgG/iXAGZWh/v&#xA;4f1g63tkf4Hl/qS+5P8A869NFn55mmVeK30EVxt0rQxH8Y65lds4+HOT/OAP6P0Os9k8/HogP5ki&#xA;P0/pT7/nHy+C6hrFgTvNFFOo/wCMTMjf8nRmX2DP1Sj5A/j5ut9tcNwxz7iR89/0MC8+6cdP856x&#xA;a04qLp5EXwSU+qn/AArjNVrsfBmkPP793pexs/i6THL+iB8tj9z3HRtXltPyit9QgNJ4NMKwEGv7&#xA;1FMaf8PTOnw5THRiQ5iD51qtMJ9qGEvpOXf3cz9ihYaVBB+YGjaOoDWvl/RTNDXf9/NKIWah/aZV&#xA;5VyEMQGojDpjx/aTTZm1MpaHJl/izZqP9UDi/Ywfyv5laf8AOue7Dn0L+e4tag/ajVSsNfpiTNZp&#xA;tTetJ6SJH6vuD0XaGg4eyBCvVCMZfG/V95Yj+YelrpnnXV7RFCR+uZY1HQLMBKoHyD5r9fi4M8h5&#xA;/fu7zsTUeNo8cjz4a+W36Hq35rJ6v5W2EikFUa0eo3BBjK7f8Fm+7UF6WP8Am/c8X7OGu0pg/wBP&#xA;73m/5U+YDo3nOzLtxtr4/VLipoKSkcD9EgX6M03Zefw8w7pbPWe0ei/MaSVfVD1D4c/stnP59eWP&#xA;UtrTzFAnxwkWt7QfsMSYnPyaq/SM2nbmmsDIOmx/Q857G9oVKWnl19Uff1H6fgXi2c2+gPo38rEX&#xA;UPyxtLST7LpdW7k77NLIP+ItnYdmDj0oB8x9pfKfaInF2jKQ74y+wPJ/ykZrX8xtPilHFibiJwez&#xA;ei+3/BCmaHso8OpiD5/cXtvaUcegmR/RP+yD0789Ii/khWoD6d5Cxr2qrrt/wWbvtsfuP84PH+yE&#xA;q1nvgf0MR8kflDonmDy5Dqc2qyfWJuXKK3CFYiCRxflU8tq9v45r9F2TDLjEjLc93R3va/tNm0uo&#xA;OMYxwjqb38x+Ck/nf8otY8uWr6hbTDUdNT+9kVSksQ8XSrfD/lA/MDMfW9lTwjiB4oud2T7TYtVL&#xA;w5DgyHl3H3Hv8mG6Rci11ayuSaCCeKQn/UcN3+Wa3FLhmD3EO+1OPjxSj3xI+x9UazY6GZbbWNVM&#xA;aLpJeWGeZgscbSAKXNdq7be/vndZoQsTn/A+M6XNmqWLFf7ygQOZro828x/n1bwXLQaBZLdRoaG7&#xA;uSyq3+pGKNT3JHyzTajtwA1jF+Zes0PsbKUeLPLhP82P6Ty/HNPPK/mTSPzK8vXumararFcxACeF&#xA;TUDkDwmhJ3BBB+XyOZWm1ENZjMZjf8bh13aGgy9k545MUrieR++Mvx9zwjXdIudG1i80u5/vbSVo&#xA;y1KBgPssPZloRnLZ8RxzMT0fSdHqo58UckeUhf49z1n8rdDi8w/ldq+kTmizXkqwuf2HEULo30Pv&#xA;m/7MwjLpZQPWR+4PEe0WrOl7Sx5Y9IC/MXIH7EVoVrofnDTF8q+a4jB5l0StuGDcJzGgAEkbEEPV&#xA;QOWx/m75PBGGoj4WXbJDbz+H482nWZM2hyfmdKb0+bfvjfce7fly7ky0P8kvK2majFfST3F60DiS&#xA;GGUqIwymqlgigtQjxp4jLsPY2KEhIkmnF1ftZqc2MwAjC9iRd/axz/nIHVgZNK0hG3UPdzL8/wB3&#xA;GfwfMPt7L9MPj+r9LtfYrTbZMp8oj7z+h49nPPduxV2KvbP+cfdN4adq2psP76WO3Q/8YlLtT5+q&#xA;M6XsHH6ZS7zX4+b577a57yY8fcDL57foSz8/tFMepadrKL8FxGbaYj+eI8lJ/wBZXP3ZR27hqUZ9&#xA;+zmexmrvHPCf4TxD3Hn932vJs0L2yN0O8FjrWn3pNBa3MM1fD05A38Mswz4Zxl3EOPq8XiYZw/nR&#xA;I+Yes/n5o1zcS6Pe20LzMRNbyCNSx24unSv+Vm/7dwkmMgO8PE+xmqjEZISNcj+g/oY/+T+neYNP&#xA;86Ws8mm3UdnPFLDPO0EgjVWQupLFaAF0XMTsnHkhmBMTR8i7P2nz4MukkBOBmCCBxC+dH7CV/wCe&#xA;+mG382wXqj93fWykt4yREow/4Hhh7bx1mEv5w+5HsfqOPSmHWEvsO/32yHy1fi7/ACQu4+Rrp5kj&#xA;k47miTLP/wAQf7sy9NPi0J/o/rt1Wvw8HbET/Pr7Y8P3hlPmPRPN6+aX1ry8toxuNN+oSfWXZCji&#xA;VpBIOINdiKZnajDm8Xjx8O8eHf383T6HV6U6YYc/H6cnH6QNxVUwTy9+S3nHTta0/U3urFRaXMU7&#xA;oJJS5WNwxG0VDUDxzV6fsfNCcZXHYg9f1PSa32r0mXDPGIz9USOQ6j+sofnp5cv4tcTXliB0+4jj&#xA;geYEVEyhtmHXdV2OR7b08hPxK9J2+LP2Q10JYTgv1xJNeW36WVeZa6h+R0Mo+J0sbJyR4xNGH6fI&#xA;5nan16EH+jH7KdNoP3XbJH9Of28VPBVZlYMpKspqCNiCM5V9LIt9Q6dJa+c/IcRuKFNUtOE5G/GY&#xA;Di5H+pKtR8s7fGRqMG/8Uft/tfHM8ZaDWnh/yc9vd0+YfMl/Y3NhfXFlcrwuLaRopV8GQ8T+rOKy&#xA;QMJGJ5h9fw5o5ICcfpkLHxe/fkbJz8jhaU9O6mWvjsrf8bZ1nYp/cfEvmXtdGtZ74D9Ly2V10L82&#xA;mc0SG31YsfaGSWv/ABB80RPhav3T+y3soj8z2XXWWL7QP1h7F+b1obn8v9T4irQ+lKv+wlXl/wAL&#xA;XOi7Wjenl5V97wfszk4NdDzsf7E/pfONlf3tjOtxZ3EltOpBWSJijCm/VSM46E5RNxNF9Xy4YZI8&#xA;MwJDz3fU3le/Ot+U9Pu7xVla9tU+tKwHF2K8ZKr0oxrtnc6afi4omXUbvjXaGH8vqpxhtwTNeXc+&#xA;Z/NejjRvMmo6YtfTtZ3SKvX0yapX/YkZxeqw+HklHuL652dqvH08MnWUd/f1+17Z5/u5NT/J76+h&#xA;J9e3sp5fH4njLA08GO+dLr58ej4u8RP3Pn3YuIYe1eA9JTA+Unz9nJvpzOfyZ1N7Lz3axcqR30ct&#xA;vJ4fZMi/8NGM2fY+ThzgfzrDzvtVpxk0Uj1gRL7a+4o789tOW384RXaigvbVHc+Lxloz/wAKq5b2&#xA;3jrMD/ODjex+fi0hif4JH5Hf77Z7+RljNbeSDLIKLeXcs8X+oFSL/iURza9iwIwWesif0foea9r8&#xA;wnrKH8MAD9p/Sm/nzyn5a1LTbjVdRRre6sIXmTUbdvTnURLyA5ftdNgR8syNdpcU4mctjEcxzcHs&#xA;btLUYsgxYzxRma4TvHf8frYv+RT63d2mralqF1NcwSvFBCZ3aQ8olYvQuSdhIo/2swexDOQlKRJG&#xA;w38nce2AwwljxwjGJAJNCudVy9xeZfmRrn6Z85ajdK3KCKT6vb06enD8FR7MQW+nNL2jm8TNI9OX&#xA;yev7C0n5fSQifqI4j7zv9nJjOYTt3Yq7FX03+VuknTPI2mRMvGW4jN1J4kznmtf9gVGdr2Zi4MER&#xA;37/N8g9odT42tmekTw/6Xb77X/mX5eOu+Tr61jXldQL9ZtR1PqQ1NB7svJfpw9o6fxcJHUbj4I7B&#xA;1v5bVwkfpPpPuP6jR+D5hziX2B2KvpaXznJpv5cWXmVbX66VtrYzw+p6e78Y3PLi/wBlz4Z2Z1nB&#xA;phlri2D5JHsoZe0Jacy4PVKjV8rI6joxGP8A5yFtSB6mhup/aC3AYfjGua8dvj+Z9v7HeS9iZdMo&#xA;/wBL/wAeR3556fHqHlOw1i3/AHi2sykOP983K0r9LKmW9tYxPFGY6H7D+A43shmOLVTxS24h9sf2&#xA;WxT8oLwXll5h8rSEf7k7OR7YH/fgQxtT3IdT/scwOyZ8UZ4v50dnde0+Lw54dSP8nMX7rv8AQfmz&#xA;LzXdXGr+TvKc0dzLb2+oXVnBfPC7RketGUPLiRssnXNlqpHJhxm6EjEH4/tdD2djjg1eoBiJShCZ&#xA;jYvkb+0PGW1/zPY3LQNqV2j20hV4vXl4hkahBAbxGc34+WJrilt5l74aLTZI8QhCpDnwjr8HoX5/&#xA;3Fz+k9LhE7m0eAv9XDH0+auRz41pXi1K5t+3ZHiiL2p5f2LhHw8hocXFz61XJkHlZv0l+SFxAd3i&#xA;s72Pf+aMyOnX245l6b16Ej+jL9Lq+0R4XbAl3zgfnQP6Xg2cs+lPa/yC18SWV/oUrfHAwurYE9Ue&#xA;iyAeysFP+yzpOws9xljPTcPn3tnoqnDOOR9J943H6fkkn56+WRZ61BrkCUg1EencU6CeMUr/ALNP&#xA;1HMbtvTcMxkHKX3uw9j9f4mE4Zc4cv6p/UfvDMvyK/5QmT/mMl/4hHmx7E/uP84/odD7Yf44P6g+&#xA;8vMvzitvQ/MDUGAoJlglH/IlVP4qc0va8a1EvOvuev8AZfJxaGA7uIf7Iva9MuE82/l8jFgz6lYt&#xA;DK3YTFDG/wB0gOdLjl+Y0/8AWj9v9r59qIHRa492PJY912PsfMMiPG7RuCroSrKeoI2IziCKfYAQ&#xA;RYfTP5VknyBo9d/3b/8AJ187Xsz/ABeP46vkPtF/j2T3j7g8V/N//wAmLq3/AEb/APUNFnN9rf4x&#xA;L4fcH0H2Y/xDH/nf7uTPNBu01P8AIq+hY1eyguIXrvvE3rIP+BZc2mCfHoSP5oP63m9ZiOHtqBH8&#xA;con5jhP228Szmn0JOPJ2oR6f5q0m8lYJDDdxGVyaAIXAcn5KTmRpMghljI9CHB7UwnLpskBzMDXv&#xA;rZ6T+c9v+m/NGgaPpxWa/lRhRSDRZWXiWI7AKzfLfNz2xHxcsIR3l+t5L2Vn+X02bLk2gD9w3/QH&#xA;rOj6Xb6VpVpptsP3NpEsSHoTxFCx9ydzm/w4hjgIjkA8RqtRLNllklzkbeb/AJyeZ5pzb+TdJrLf&#xA;37p9bVOoVmHpxfN23Pt7HNN2vqSaww+qXP8AQHrPZbs8RvV5doQB4f0n4ff7k31ye3/L78tVtLdw&#xA;L0RfVoHXYvdTAl5B/q/Ewr4AZkZpDSaah9XL4nq4WkhLtPtDikPRfEfKI5D7g+ds5B9TdirsVTLy&#xA;3o8mta9YaXHWt3MqOR1VK1dv9igJy7T4TkyCHeXE1+qGnwTyH+Efb0+19ZRxpHGsaAKiAKqjoABQ&#xA;DO9ArZ8SlIk2ea7Ch8xfmV5ZPl/zZd20acbO4P1mzoKD05CTxH+o1V+jOJ7R03hZSOh3D7B2Dr/z&#xA;OljI/XH0y94/WN2LZgu5ex+TNa03UPyf1jSby4SObT4LlQjsAeLgywsB1I9Q8R8qZ0WjzRno5QJ3&#xA;iD+sfa8H2rpMmLtXHlgCROUf1S+zd45nOvePoDyof8XflC+nMedzHbyWW/aW3o0HX29M51ml/wAI&#xA;0fD1qvly/Q+Y9o/4D2r4n8JkJfCX1f754r5V1uXQfMdjqgqPqsoMyjqYz8Mi/ShIzmtLmOLIJdx/&#xA;tfQe0dINTp54/wCcNvf0+17Pqdn63lrzHoFuwL2Z/TWiOv7VvK/1pfT8eMqvH92dJkheKeMdPXH3&#xA;fV99h4DT5eHUYc8uUv3WT+sBwG/fHhl83lP5h28f+If0nAoW11uGLUoQOxnWsgPuJQ2aHXxHicQ5&#xA;THF8+f2va9iTPgeHL6sUjA/5vL/Y0y/88QXsvK1yaBpraWqjtRYW/wCN82HbW8cZ8j+h0XsjtPPH&#xA;ukP99+pO/wAj5vrnk3VtNJqyTvQVpRZ4VA/FTmV2KeLDKPn94dd7XR4NXjyf0R/sZPDs5h9FTvyZ&#xA;5jk8u+ZLPVFqYon43KD9qF/hcfcaj3pmTo9QcOQT+fudf2roRqtPLH1PL3jl+O59FecNAtfNnlSa&#xA;zidHNxGs9hcVqvqAco2BH7LA0J8DnYavAM+IxHXcfofKuzNbLRakTI+k1IeXX5feEu/KbQNR0Tyk&#xA;trqMLW929xLK8LEEgEhB023CVynsvBLFhqQo2XL9pNZj1Gq4sZ4oiIF/b+l5d+eiKvndSBQtaQlv&#xA;c8nH6hmj7bH7/wDzQ9j7IH/A/wDPP6E+/IfzUiNc+W7l6GQm5sK9zT96g+gBh9OZXYeq54z7x+l1&#xA;vtj2cTw6iI5emX6D+j5Mc/N/yfcaN5jm1KKMnTNTczJIBskzbyRt4EmrL7fI5h9raQ48hkPpl97t&#xA;vZjtSOfTjGT+8xiveOh/Qf2vZPy4s5LTyNo0MgIc24kIPUeqTIPwbOj7PgY4IA9zwPbuUT1mQj+d&#xA;Xy2/Q+ffP+pJqPnPWLtG5RtcNGjdQVipEpHzCZyWvyceaR8/u2fUOxcBxaTHE8+G/nv+lU0Dzpda&#xA;R5b1rRFiEsWrIqo5NPSb7Lmnfkm3zAw4NYceOcP57HW9lRz6jFmujjPz7vkWN5hu1bVWdgiAszGi&#xA;qNySegAxAUmty+gPym/Lo6Ba/pfU46axcpRIm628R/Z/12/a8OnjnWdl9n+EOOX1n7HzH2k7c/My&#xA;8LGf3Uev84/qHT5ph+Y/5j2nlazNtbFZ9anX9xD1EQP+7JPbwHf5Zb2h2gMAobzP4txewuwpayfF&#xA;LbCOZ7/IfjZI/wAq/JF1bPL5v8xljqVyGkgE5+KNHFXmkJ6Mw+4fPbG7M0Rj++yfUe/73Y+0Xa0Z&#xA;gaXT/wB3HY117ojyH2l55+aHnb/E+u0tWP6KsaxWY6BzX45af5dNvYDNR2lrPGybfRHl+t6j2e7J&#xA;/KYfV/eT3l5dw+H3sNzXO/dirsVetfkJ5cMt9eeYJl/d2w+rWpI/3Y4BkYf6qUH+yzf9h6e5HIem&#xA;weI9stdwwjgHOXqPuHL7fue2Z0r567FWAfnJ5SOteXPr9snK/wBK5SoAKl4TT1V+igYfL3zU9r6X&#xA;xMfEPqj93V6f2W7S/L6jgl9GTb3Hof0fF88ZyL6k7FXYq9X/ACD15YNUvtElcBbxBPbA/wC/ItnA&#xA;92Q1/wBjm97Dz1IwPXcfD8fY8V7ZaPixxzD+E0fceX2/ew38yNJj0rzvqtrFT0ml9eMDoBOol4/7&#xA;HnTNd2ji4M8gO+/nu77sHUnNo8cjzqv9Lt+hnH5c61c6xpdrbWzK3mLy8ri2gkbgt5p0tBJbM3Yr&#xA;txJ2UhffNp2fmOSAA/vMfL+lHu/Hk8725pI4MkpS/uM9WR/BkHKXx69+/khvMHkPXF/K2wmvrcx6&#xA;lokkzNDUO/1SV+TVKlh8J+L2WuQz6HJ+ViZD1Qv5Fu0XbOE9pTEDePMI7/0wP08vexnzz53h8yad&#xA;oNrHA8T6VbGO4dyPjlcIrFafs/ugfpzB1utGaMAB9I/V+p2/ZHZJ0mTLIkHxJWPIb/bup+RvPt55&#xA;TGpCCAT/AF+EIlW4iOZK+nJ0NQOZqNq+ODRa44OKhfEPtZ9r9jQ1vBxGuA/MHmPsYrmC7l2KvWvy&#xA;j/MyCxjj8u61KI7WtLC8c0WOpr6UhPRa/ZPbp06b/srtIR/dzO3Q/oeI9puwDkJz4Rcv4o9/mPPv&#xA;73tgIIBBqDuCM6V89fNP5saza6r53vZbWQS28CpbpIpqrGNfjofDmTnF9qZhkzkjkNn1z2b0ssOj&#xA;iJCpSuXz5fYxaxvrqwvIby0kMNzbuJIZF6qymozBhMxIkOYdzmwxyQMJC4yFF9E+TvO/l/ztpP1L&#xA;UIofr/ELd6dMFZXI/bjVvtL38V/E9fpNbj1MOGVcXUPlfanZGfs/Lx4zLg/hkOnka6/eq/mL55sP&#xA;LGiSwwSp+l5kMdlbIRySop6jAfZVBuPE7ZLtDWxwwIB9Z5D9LDsPsieszAyH7oG5Hv8AL3l81Ekm&#xA;p3J6nOMfW3YqitM0vUNUvY7LT4HubqU0jiQVJ9z2AHcnYZPHilOXDEWWnUajHhgZ5DwxHV73+Xf5&#xA;U2Xl0JqOp8brWqVSm8cFR0SvVvFvu9+r7P7Ljh9Ut5/c+adue0c9VePH6cX2y9/l5fNE/mV+Y0Pl&#xA;i2FlZATa5crWGOlViU7CRx3P8q98n2j2gMI4Y7zP2NXYPYR1cuOe2GPPz8h+ksf/AC9/LS6N0fNP&#xA;m8mW9c+vDbXBqyt19Wfl+0Oy9u++ww9B2cb8XNz50fvLs+2+348P5bS7Q5Ej7o/r6pJ+an5p/pP1&#xA;dC0OX/cd9m8vFP8Af06oh/334n9r5dcbtPtPjvHj+nqe/wDZ97sPZ32d8Gs+YfvP4Y/zfM+f3e/l&#xA;yzNG9m7FXYqrWVnc3t5DZ2qGW4uHWKGMdSzGgGShAyIA5lry5Y44GcjUYiy+q/K2gW+gaBZ6VBQi&#xA;3QCWQftyN8Uj/SxOd3psAxYxAdHxftHWy1OeWU/xH5DoPkmuXuE7FXEAih3B6jFXzb+afktvLevt&#xA;JbJTSr8tLaEdENfji/2JO3tT3zjO09H4OTb6Zcv1PrPs72r+bwVI/vIbS8+4/H72F5rnoHYqqW9z&#xA;cW06XFtK8M8R5RyxsVdSO4YbjDGRibGxYzxxnExkLB6Fu5urm6uJLi5lee4lYtLLIxZ2Y9SSdzjK&#xA;RkbO5RjxxhERiKiOgVtJ1W+0nUYNRsJTDd2zB4nH3EEdwRsR3GSxZZY5CUeYYanTwzYzjmLjJ9K+&#xA;SPO2l+bdJ9RAqXsahb+ybfiSKEgH7SN2P0HO00WsjqIX16j8dHyTtfsnJostH6D9Mvx1CVa5+TPk&#xA;vUuT28L6bOannatRK+8bclp7LTKM/Y+GfIcJ8v1OZo/arV4tpEZI/wBLn8xv87YNqv5Ba/DybTb+&#xA;3vFHRJQ0Dke394v/AAwzV5ewsg+mQP2PR6f2zwS/vISj7vUP0H7GKan+WfnrTkMlxpEzxj9qArPt&#xA;40iLkfSMwMnZueHOJ+G/3O60/b+iymo5Bfncfvpj81jew19a3kj47tzRlp86jMQwkOYdpHNCXIg/&#xA;FQyLYmdtrXmUWbWVtf3gsqcWto5ZfSoexRTx7eGXRzZa4QZV3WXEyaTT8fHKEOPvIF/NDx6Rq0gD&#xA;R2U7q32SsTkHt2GQGKZ6H5NktTiHOUfmEVH5T81SEiPRr5yOoW2mP6lywaXKeUJfItMu0tMOeTH/&#xA;AKaP60ZB+XnnianDRLsVofjjMfX/AF+OWR0Gc/wFon23o488sPnf3Jnb/k/+YM5BbTREGP2pZ4R3&#xA;7gOW/DLo9k6g/wAP2hxJ+0+hj/HfujL9Sa2v5Deb5aGe5srde4LyO33KlPxzIj2HmPMxH49zhZPb&#xA;HSj6Yzl8B+tOrH/nHsVDX2s1HeOCDf8A4Nn/AONcyYdg/wA6fyDrs3tt/MxfOX6AP0vSfLHk7QPL&#xA;VqYNLtwjsP31y/xTSf6z/wABQe2bnTaTHhFQHx6vJ9odqZ9XLiyH3DoPcPwUTrvmDSNCsGvtUuFt&#xA;4F2Wu7O38qL1Zvlk8+eGKPFI0GnR6LLqZ8GOPEfu9/c+fX892b/mUfNkto01oJeSWrlS/AQ+ih3q&#xA;vJdmHv375yR1w/M+MRYvl8KfUB2PMdn/AJUSqVc/87iPw6Knnf8ANbW/MqtZwj9H6UftWyNV5B/x&#xA;a+1R/kjb55LW9qTzekemHd+th2R7OYdIeM+vJ393uH6efuYRmseidirsVdir2X8kfI7JXzRfx0JB&#xA;TTEYb0OzzfT9lfp9s6LsbRf5WX+b+t4L2t7Xv/BoH+v+iP6T8PN7DnRPBuxV2KuxVJ/Nnlmx8yaJ&#xA;Ppd2KcxygmpVopV+y4+XfxFRmPqtNHNAxP8AYXP7N7QnpMwyQ+I7x1H46vl/WtGv9G1S402/j9O5&#xA;t24sOxHUMp7qw3GcPmwyxyMZcw+xaTVQ1GMZIG4yQOVuQ7FXYq7FUfoeuanompRajpsxhuYjseqs&#xA;p6q47qe4y3DmlikJRNFxtXpMeoxnHkFxP4seb6G8h/mVpHmmBYGItNYQfvbNjs9OrQk/aX26j8c6&#xA;7Q9owziuU+79T5b2x2Dl0Z4h6sXSX6Jd33H7GY5sXQuxV2KuxV2KuxV2KuxV2KuxVzMqqWYgKBUk&#xA;7AAYqBbznzn+c2iaQJLTR+Op6iKrzB/0eNv8px9v5L9+afWdsQx7Q9Uvser7K9lc2epZf3eP/ZH4&#xA;dPj8niGveYdX16/a+1S4a4nOy12VF/lRRso+Wcxn1E8suKZsvomj0WLTQ4MY4R9/vS7KnKdirsVd&#xA;irsVZx+WX5eT+Z78Xd2pTRLV/wDSH3BlcUPpIRv/AKx7D3zZ9m6A55WfoH2+Tzvb/bcdHDhj/fS5&#xA;eXmf0PoyKKKGJIokEcUahI41ACqqigAA6ADOwAAFB8qlIyJJ3JXYWLsVdirsVdirDPzK/L6DzTp3&#xA;rW4Ees2qn6rL0Eg6+k58Ceh7H6c1vaOgGeNj6xy/U9B2D21LR5KlvilzHd/SH43fON3aXNncy2t1&#xA;E0NxCxSWJxRlYdQRnHTgYmjsQ+rY8kZxEom4nkVLAzdirsVdiq6KWWGVJYnaOWMho5EJVlYGoII3&#xA;BGIJBsIlESFEWC9R8p/nnqNlGlr5ggN/CuwvIqLOB/lKaK/3g/PN5pe25R2yDiHf1eN7S9kMeQmW&#xA;A8B/mn6f1j7Xp+jfmN5M1cKLXVIo5m/3RcH0ZK/ygSceR/1a5u8PaGHJykPjs8fquwtXg+qBI7xu&#xA;Ps/SyQEEAg1B3BGZrqXYq7FXYq7FXYqgdU13RtKj9TUr6G0WlR6rqpP+qpNW+jKsueGMXIgOTp9H&#xA;mzGscZS9wYBr/wCe3l20DR6PbyalMNllYGGH51Ycz/wI+eanP23jjtAcR+Qem0XsfnnvlIxj5n9X&#xA;2vK/M/5ieafMfKO+ujHaE7WUFY4v9kK1f/ZE5otT2hlzfUdu4cntOz+w9Npd4RuX847n9nwY1mG7&#xA;Z2KuxV2KuxV2Ks1/Lz8tb/zTcC5uOVrosTfvbmnxSEHeOKvfxboPwzZaDs6Wc2dod/6nn+2+3oaO&#xA;PDH1ZTyHd5n9XV9E6dp1lptlDY2MKwWsC8Iok6AfxJ7nvnX48cYREYigHyvPnnlmZzNyPMojJtTs&#xA;VdirsVdirsVdirB/zG/LSz80QG8tONvrcS0jl6LMB0SX+Ddvlms7Q7OjnHENp/f73ouwu356OXBL&#xA;1YT07vMfqfPWpabf6Zey2N/A1vdQNxkicUIP8QexHXORyY5QkYyFEPqWDPDNATgeKJ6obINrsVdi&#xA;rsVdirsVR+m+YNc0s/7jtQuLQVrxhldFPzUGhy3HnyQ+mRDjZ9Fhzf3kIy94DKdP/OXz5aAK93He&#xA;IvRbiJD97J6bH78zsfa+ePW/eHTZ/ZbRT5RMfcT+mwm6fn/5nCjnp9kW7kCUD7vUOZA7dy/zY/b+&#xA;twT7F6bpOf2fqak/P7zSR+7sLFWr1ZZmFPkJFxPbuXpGP2/rWPsZpus5/wCx/wCJQdz+efneYERi&#xA;0tie8ULEj/kY8mVS7aznlwj4ORj9kNHHnxy95/UAkGo/mL531CouNYuAp2KwsIAR7iEIMxcnaGef&#xA;OR+77nZ4Ow9Hi+nHH4+r/dWx6SSSRy8jF3Y1ZmJJJ9ycwybdpGIAocluKXYq7FXYq7FXYq2iO7qi&#xA;KWdiAqgVJJ2AAGIFoJAFl6v5C/Ja4ujHqPmZWgttmj06tJX7j1SPsL/k/a+Wb7Q9jmXqy7Du/W8V&#xA;2z7VxhePT7y/ndB7u/38ve9qt7eC2gjt7eNYoIlCRRIAqqoFAAB0AzpYxAFDk+fTnKcjKRslUwsX&#xA;Yq7FXYq7FXYq7FXYq7FWO+cvIuiearP0r1PSu4wfq17GB6iHwP8AMvip/A75h6vRQzipc+hdr2X2&#xA;xm0c7hvE84nkf1HzfPnm7yLr3le54X8XO1c0gvY6mJ/av7Lf5JzktXosmA+obd/R9Q7M7YwayNwP&#xA;q6xPMfs82PZiO0dirsVdirsVdirsVdirsVdirsVdirsVdirsVdirsVZf5U/K7zT5h4TJB9S09qH6&#xA;5cgqpXxjT7T+1NvfNhpezMubeqj3l0faPtDptLYJ45/zY/pPIff5PbPJ/wCWvlzyyqywx/WtRp8V&#xA;9MAXFf8Afa9EHy3986XSdnY8O43l3l897U7e1Gr2J4cf80fp7/xsyvM90jsVdirsVdirsVdirsVd&#xA;irsVdirsVUruztby3ktruFJ7eUcZIZFDKw8CDtkZwEhRFhnjyyxyEokxkOoeSecfyLRy935YkCHd&#xA;jp0zbV8IpD0+T/8ABZoNX2Je+L5H9B/W9x2X7XkVDUj/ADh+kfq+TyTU9I1PSrprXUbWS0uF6xyq&#xA;VJ9xXqPcZz+TFKBqQovb6fU480eLHISj5ITIN7sVdirsVdirsVdirsVdirsVdirsVXwwTTyrDBG0&#xA;srmiRoCzE+wG5wiJJoMZzERcjQZ75a/JfzVqpWXUFGk2h3LTjlMR7RAgj/ZEZtdP2PlnvL0Dz5/J&#xA;5rX+1emw7Q/eS8uXz/Vb1jy1+VnlDQuMiWv128Xf61dUkYHxVacF+gV9832n7Mw4t6s95eK1/tFq&#xA;tTsZcEe6O328yy7Ng6J2KuxV2KuxV2KuxV2KuxV2KuxV2KuxV2KuxV2KoTU9I0vVLY22o2sV3Af2&#xA;JVDAHxFeh9xleTFGYqQsN+n1OTDLixyMZeTzbzF+Q2k3PKbQrtrGU7i2mrLDXwDfbX6eWabUdhwO&#xA;+M8PkeX4+b1uh9scsNs0eMd42P6j9jzPX/y384aGWa6sHlt1/wCPm2/fR08Tx+JR/rAZpc/Z2bFz&#xA;jt3jd67Rdu6TUfTMCXdLY/t+FsZzCdu7FXYq7FXYq7FXYqj9P0HW9SI/R+n3F3U0rDE7j6SoIGW4&#xA;8E5/TEn4ONn1mHF/eTjH3kBlmk/kv54virTwRafEd+VzIK0/1I/Ub76Zn4ux88uYEfe6TU+1ejx/&#xA;STM/0R+k0znQ/wAhNDtysmsXst+43MMQ9CL5Egs5+gjNph7DgN5ky+x5zV+2WaW2KIh5n1H9X3vQ&#xA;tI8vaHo8Xp6XYw2i0oTGgDN/rP8Aab6Tm2xaeGMVEAPL6nXZs5vJMy95/RyTDLnFdirsVdirsVdi&#xA;rsVdirsVdirsVdirsVdirsVdirsVdirsVdirsVYh5s/5Vfyf/EX6P+sft8uP1n/kl+9zX6r8r/lO&#xA;G/t+zd3vZv8AKNf4P4nD/sft9Ly3W/8AlR/I/Uv0n1NPqf2fb/evemaLN+R/h4/h/wAeey0n8s/x&#xA;+F/nf8cYtN/gj1D6H6T9Ptz+r8vwzBPgdOP7Hcw/OVv4V/5ypa/4AqfrX6VpUU9L6t07/ayUfy/X&#xA;j+xjk/Pfw+F8eJkmmf8AKj9vrH6V9/rVPf8A5Z8zMf5Hrx/H9jqdR/LP8Phf5v8Ax5lGn/8AQv8A&#xA;Uel6PLv9Y+udad/V+HM7H/J/SvjxfpdNn/lzrf8Am8H6GZaP/wAqz5L+if0R6ldvR+r+pWu3T4/l&#xA;mxw/lv4OD7HQ6r+Uf8r41efFX6mUClNunbM50zsVdirsVdirsVdirsVdirsVdirsVdirsVf/2Q==</xmpGImg:image>
               </rdf:li>
            </rdf:Alt>
         </xmp:Thumbnails>
      </rdf:Description>
      <rdf:Description rdf:about=""
            xmlns:xmpTPg="http://ns.adobe.com/xap/1.0/t/pg/"
            xmlns:stDim="http://ns.adobe.com/xap/1.0/sType/Dimensions#"
            xmlns:xmpG="http://ns.adobe.com/xap/1.0/g/">
         <xmpTPg:MaxPageSize rdf:parseType="Resource">
            <stDim:w>958.531250</stDim:w>
            <stDim:h>914.088379</stDim:h>
            <stDim:unit>Pixels</stDim:unit>
         </xmpTPg:MaxPageSize>
         <xmpTPg:NPages>1</xmpTPg:NPages>
         <xmpTPg:HasVisibleTransparency>False</xmpTPg:HasVisibleTransparency>
         <xmpTPg:HasVisibleOverprint>False</xmpTPg:HasVisibleOverprint>
         <xmpTPg:PlateNames>
            <rdf:Seq>
               <rdf:li>Magenta</rdf:li>
               <rdf:li>Yellow</rdf:li>
            </rdf:Seq>
         </xmpTPg:PlateNames>
         <xmpTPg:SwatchGroups>
            <rdf:Seq>
               <rdf:li rdf:parseType="Resource">
                  <xmpG:groupName>Default Swatch Group</xmpG:groupName>
                  <xmpG:groupType>0</xmpG:groupType>
               </rdf:li>
            </rdf:Seq>
         </xmpTPg:SwatchGroups>
      </rdf:Description>
      <rdf:Description rdf:about=""
            xmlns:dc="http://purl.org/dc/elements/1.1/">
         <dc:format>image/svg+xml</dc:format>
      </rdf:Description>
      <rdf:Description rdf:about=""
            xmlns:xmpMM="http://ns.adobe.com/xap/1.0/mm/"
            xmlns:stRef="http://ns.adobe.com/xap/1.0/sType/ResourceRef#"
            xmlns:stEvt="http://ns.adobe.com/xap/1.0/sType/ResourceEvent#">
         <xmpMM:DerivedFrom rdf:parseType="Resource">
            <stRef:instanceID>xmp.iid:CEED7084C35BEE119C1DE25C44CB3687</stRef:instanceID>
            <stRef:documentID>xmp.did:CEED7084C35BEE119C1DE25C44CB3687</stRef:documentID>
            <stRef:originalDocumentID>xmp.did:CBED7084C35BEE119C1DE25C44CB3687</stRef:originalDocumentID>
         </xmpMM:DerivedFrom>
         <xmpMM:DocumentID>xmp.did:D0ED7084C35BEE119C1DE25C44CB3687</xmpMM:DocumentID>
         <xmpMM:InstanceID>xmp.iid:D0ED7084C35BEE119C1DE25C44CB3687</xmpMM:InstanceID>
         <xmpMM:OriginalDocumentID>xmp.did:CBED7084C35BEE119C1DE25C44CB3687</xmpMM:OriginalDocumentID>
         <xmpMM:History>
            <rdf:Seq>
               <rdf:li rdf:parseType="Resource">
                  <stEvt:action>saved</stEvt:action>
                  <stEvt:instanceID>xmp.iid:CBED7084C35BEE119C1DE25C44CB3687</stEvt:instanceID>
                  <stEvt:when>2023-09-25T18:49:39+02:00</stEvt:when>
                  <stEvt:softwareAgent>Adobe Illustrator CS6 (Windows)</stEvt:softwareAgent>
                  <stEvt:changed>/</stEvt:changed>
               </rdf:li>
               <rdf:li rdf:parseType="Resource">
                  <stEvt:action>saved</stEvt:action>
                  <stEvt:instanceID>xmp.iid:D0ED7084C35BEE119C1DE25C44CB3687</stEvt:instanceID>
                  <stEvt:when>2023-09-25T19:10:27+02:00</stEvt:when>
                  <stEvt:softwareAgent>Adobe Illustrator CS6 (Windows)</stEvt:softwareAgent>
                  <stEvt:changed>/</stEvt:changed>
               </rdf:li>
            </rdf:Seq>
         </xmpMM:History>
      </rdf:Description>
   </rdf:RDF>
</x:xmpmeta>
                                                                                                    
                                                                                                    
                                                                                                    
                                                                                                    
                                                                                                    
                                                                                                    
                                                                                                    
                                                                                                    
                                                                                                    
                                                                                                    
                                                                                                    
                                                                                                    
                                                                                                    
                                                                                                    
                                                                                                    
                                                                                                    
                                                                                                    
                                                                                                    
                                                                                                    
                                                                                                    
                           
<?xpacket end="w"?>
	</metadata>
<g transform="translate(0.000000,1043.000000) scale(0.100000,-0.100000)">
	<path fill="#FF3300" d="M5210,9568.998c-525.996-35-1147.002-167.998-1672.002-358.998
		c-455-166.002-898.999-406.002-1288.999-697.002c-202.998-150.996-296.001-230.996-482.998-412.999
		C1253.999,7600,840,6975.996,577.002,6309.003c-235-598.007-325-888.007-366.001-1193.007c-52.002-373.994-25-885.996,63.999-1230
		c87.002-336.992,285-830,460-1145.996c365-655,828.999-1155.996,1450-1565c347.002-227.998,561.001-332.002,1115-540.996
		c282.002-106.006,502.998-159.004,805-195c157.002-18.008,455-13.008,635,10C4825,460,4977.998,475.996,5080,485
		c482.998,40.996,1020.996,155,1407.998,299.004c64.004,23.994,172.998,61.992,242.002,85C6799.003,892.002,6915.996,940,6990,975
		s195,89.004,267.998,119.004c336.006,141.992,686.006,341.992,962.001,550.996c302.002,229.004,590.996,522.998,785,800
		c405.996,580,655.996,1362.002,765,2397.998c57.998,554.004,52.002,1192.998-15,1590c-92.998,550-282.002,995-607.002,1429.004
		C8759.999,8380,8197.001,8841,7564.003,9158.998C7060,9412.002,6600,9528.998,5955,9570C5770.996,9581,5392.998,9581,5210,9568.998
		z M7710,6244.004c17.998-41.006,17.998-41.006,40.996-85c120-239.004,230-581.006,298.007-924.004
		c16.992-82.002,45-212.998,63.994-290c50-200.996,70-355,71.006-535.996c0.996-181.006-1.006-185-85-213.008
		c-104.003-32.998-166.005-12.998-218.007,70c-37.998,60-96.992,244.004-115.996,363.008C7749.003,4730,7727.001,4770,7685,4770
		c-80.996,0-134.004-147.002-120.996-340c15-240.996,133.994-499.004,276.992-605c32.002-24.004,80-50.996,106.006-60.996
		c27.002-9.004,52.002-21.006,55.996-24.004c12.998-10.996-30-155-68.994-230.996c-18.008-36.006-65-115-105-175
		c-73.008-110-131.006-172.002-491.006-519.004c-135.996-130.996-160.996-170-162.998-252.998c0-52.002-2.002-54.004-50-91.006
		c-27.998-20.996-152.998-107.998-280-192.998c-507.002-340-1025.996-535.996-1655-622.998
		c-157.002-22.002-667.002-32.002-780.996-15c-240,34.004-622.002,119.004-803.003,177.002
		C3380,1890,3272.998,1945.996,3062.002,2104.004c-159.004,118.994-246.001,196.992-393.003,351.992
		c-225,236.006-320,395-452.998,754.004c-113.003,307.998-160,505.996-176.001,747.002c-6.001,80.996-15,217.998-21.001,302.998
		c-22.998,324.004,13.003,720.996,91.001,1030c17.002,64.004,73.999,240,95,290.996L2348.999,5925
		c-3.999-10.996-7.998-27.002-7.998-35s38.999,65.996,86.997,165C2797.002,6810,3310,7270,4055,7515
		c129.004,42.998,317.998,87.002,427.998,100c31.006,3.999,57.002,10,57.002,13.999c0,16.001-130,83.003-205,107.002
		c-154.004,48.999-317.998,51.997-458.999,8.999c-27.002-7.998-51.001-12.998-53.999-10c-10,8.999,20,32.998,65.996,52.998
		C4092.002,7876,4420,7813.999,4600,7655c24.004-21.001,32.002-22.002,147.998-17.002l124.004,5l-49.004,49.004
		C4707.998,7810,4560,7882.001,4330,7931c-157.998,33.999-200,46.997-200,61.001c0,11.997,99.004,3.999,235-18.003
		c207.002-32.998,355.996-106.001,495-241.001c52.002-50.996,102.002-95,110-97.998c7.998-3.999,150-10,315-15
		c320.996-10,480-26.001,664.004-66.001c510-110,995.664-347.656,1332.666-680.664C7330.673,6825.336,7688.339,6350,7710,6244.004z
		 M2377.998,6175 M8624.999,5105c20.996-20,25-32.998,25-87.002c0-133.994-52.998-432.002-147.002-827.998
		c-142.998-607.998-295-957.002-547.001-1257.998c-180-216.006-480.996-452.002-575-452.002c-35,0-60.996,39.004-60.996,90.996
		v48.008l117.998,101.992c222.998,195,381.006,362.002,471.006,498.008c95,142.998,140,230,205.996,395.996
		c42.002,105.996,45.996,125,40,169.004c-2.998,26.992-7.998,52.998-10.996,57.998c-3.008,3.994-23.008,0-45-7.998
		C7992.998,3790.996,7837.001,3897.002,7750,4070c-80,157.998-119.004,347.998-100.996,485.996c13.994,111.006,25.996,120,40,32.002
		c33.994-210.996,92.998-367.998,171.992-452.998c96.006-104.004,289.003-125.996,383.007-42.002
		c32.998,30,37.998,42.002,70.996,182.002c50.996,215,80,350,120,560c37.998,200.996,55.996,257.998,87.998,280
		S8597.997,5132.998,8624.999,5105z M1590,4637.998c36.001-38.994,60-125.996,110-407.998c87.998-495,200-947.002,330-1335
		c58.999-175.996,62.002-214.004,21.001-255.996c-33.003-32.002-58.003-36.006-100-15c-40,20.996-55,48.994-106.001,197.998
		c-47.002,135-165,538.994-165,562.998c0,10-42.998,14.004-187.002,17.002c-103.999,2.002-190,2.998-191.997,2.002
		c-2.002-2.002,11.001-70,28.999-151.006c42.998-193.994,43.999-237.002,7.002-268.994c-59.004-51.006-115-19.004-147.002,83.994
		c-27.002,86.006-102.998,465-130,647.002c-26.001,172.998-37.002,432.998-21.001,490.996c6.001,23.008,18.003,45,27.002,48.008
		c22.998,8.994,57.998-33.008,83.999-100c21.001-55,32.002-108.008,92.002-449.004c18.999-102.002,26.997-129.004,37.998-127.002
		c7.998,2.002,87.998,9.004,177.998,15c89.004,6.006,162.002,15,162.002,19.004c0,3.994-16.001,85-35,180
		c-97.002,487.002-113.999,787.002-47.998,852.998C1557.002,4665,1566.001,4664.004,1590,4637.998z"/>
	<path fill="#FF3300" d="M6085,6969.003c-262.998-61.006-545-227.002-569.004-337.002c-8.994-37.002,32.002-135,63.008-151.006
		c30.996-16.992,91.992-12.998,223.994,14.004c261.006,54.004,447.998,140,540,250.996c70,84.004,60,176.006-22.998,219.004
		C6287.001,6982.001,6150.996,6984.003,6085,6969.003z"/>
	<path fill="#FF3300" d="M3350,6607.998c-47.002-3.994-122.002-17.002-167.002-27.998c-181.997-42.998-220.996-95.996-166.997-225
		c10-25,21.001-35,36.001-35c11.997,0,31.997-9.004,43.999-20.996c26.001-24.004,126.997-41.006,223.999-37.002
		c36.001,0.996,110-4.004,165-11.006c277.002-35.996,545,57.002,545,189.004C4030,6574.003,3731.001,6647.998,3350,6607.998z"/>
	<path fill="#FF3300" d="M4707.001,6362.998c-4.004-2.998-7.002-18.994-7.002-35c0-35,40-58.994,65-37.998
		c17.998,15,20,50.996,2.998,67.998C4755,6370.996,4717.998,6374.003,4707.001,6362.998z"/>
	<path fill="#FF3300" d="M4517.998,6329.003c-25-14.004-22.002-55,4.004-73.008c27.998-20,32.998-20,52.002,0
		c20.996,21.006,20,40-4.004,64.004C4547.001,6342.998,4542.001,6344.003,4517.998,6329.003z"/>
	<path fill="#FF3300" d="M5550,5732.998c-630-30-1325-187.002-1955-440.996c-202.998-82.002-441.001-194.004-498.999-235
		c-58.003-41.006-212.002-302.998-297.002-505l-42.998-102.998L2710,4455c-102.998,12.998-233.999-49.004-315-152.998
		c-138.999-175-186.001-395-151.001-702.002c21.001-179.004,48.003-304.004,92.002-430.996
		C2447.002,2850,2590,2667.002,2662.998,2747.998c27.002,30,20,95-22.998,227.998c-62.002,191.006-90,311.006-97.002,417.002
		c-5,86.006-3.999,97.002,10,97.002c10,0,19.004-10.996,23.003-27.002C2627.002,3240,2732.998,2914.004,2797.002,2785
		c53.999-107.998,95.996-162.998,128.999-170c16.997-2.998,78.999-22.998,136.997-45c59.004-22.002,164.004-54.004,234.004-70
		c70-17.002,150.996-37.002,178.999-45c27.998-7.998,71.997-15,96.997-15c26.001,0,88.003-12.998,139.004-30
		c85-27.002,112.998-30,322.998-40.996c127.002-6.006,310.996-8.008,410-4.004c314.004,10.996,805,35,945,45
		c407.002,32.002,957.002,95.996,1072.998,125c65,17.002,164.004,80,357.998,230c392.002,302.002,558.008,520,665,870
		c26.006,84.004,28.008,100.996,28.008,275c0,217.002-15,302.002-95,545c-79.004,240.996-207.002,487.998-350,677.002
		c-173.008,227.998-560,550.996-693.008,577.002C6257.998,5732.998,5815,5745.996,5550,5732.998z M5437.998,5325
		c92.998-47.002,176.006-135.996,231.006-247.998c52.998-109.004,72.998-192.002,73.994-305c0-89.004-2.002-94.004-28.994-122.998
		C5677.001,4610,5645,4602.002,5620,4625c-10.996,10-20,24.004-20,30.996c0,26.006-70.996,218.008-97.002,263.008
		c-43.994,75.996-97.002,140-120.996,146.992c-15,4.004-30,0-42.998-11.992C5285,5005.996,5222.001,4804.004,5200,4615
		c-19.004-170-10-555.996,20.996-854.004c22.002-216.992,92.002-498.994,155-625.996c36.006-70,91.006-140,143.008-180.996
		c61.992-48.008,75-45,100.996,22.998c34.004,92.002,40,143.994,40,372.002c0,207.998-12.998,346.992-37.998,411.992
		c-14.004,35-55,67.002-102.998,79.004c-22.002,5.996-58.008,15-80,20.996C5382.998,3875,5350,3910,5350,3952.998
		c0,71.006,60.996,102.002,180,91.006c157.002-13.008,262.002-70,337.002-181.006c82.998-125,115-253.994,115.996-467.998
		c1.006-349.004-115-650.996-277.998-725.996c-55.996-26.006-142.998-25-202.998,2.998c-62.002,28.994-195,162.002-261.006,262.998
		C5060,3210,4939.003,3622.998,4910,4060c-19.004,279.004,12.998,690,70.996,919.004c66.006,263.994,166.006,380.996,325,380.996
		C5355.996,5360,5380,5354.004,5437.998,5325z M4467.998,5265.996c54.004-27.998,67.002-73.994,92.002-313.994
		c27.002-262.998,55-471.006,90.996-677.002C4754.003,3675.996,4785,3455,4800,3197.002c10-184.004,0-356.006-25-427.002
		c-72.998-205.996-300.996-207.998-494.004-4.004c-166.992,176.006-273.994,390-434.995,875
		c-145,437.002-217.002,607.002-328.999,782.002c-27.002,42.998-54.004,74.004-58.003,70
		c-16.001-15.996-47.998-162.998-58.999-265.996c-12.998-131.006-2.002-292.998,51.001-747.002
		c50-427.998,56.001-555.996,31.997-625c-11.997-32.998-26.997-54.004-45.996-65c-27.002-14.004-29.004-14.004-52.002,12.998
		c-36.001,40-51.001,104.004-88.999,377.002c-107.002,755.996-118.999,1029.004-53.999,1275c48.999,185.996,107.998,265,198.999,265
		C3530,4720,3620,4635,3720,4457.002c35-61.006,90-155,121.001-207.002c57.998-95.996,138.003-267.998,253.999-545
		c35-82.002,80-185.996,100-230c20.996-44.004,64.004-142.002,95.996-217.002c66.006-155.996,108.008-225,145-233.994
		c32.002-8.008,33.008-7.002,44.004,56.992c40,223.008,10.996,868.008-60,1384.004c-27.998,197.002-50,395.996-65,577.998
		c-10,112.002,0.996,175,35,209.004C4422.001,5284.004,4430.996,5285,4467.998,5265.996z M6685.996,5105.996
		c84.004-38.994,141.006-125,186.006-281.992c17.002-63.008,22.002-105,22.002-204.004c0-140.996-17.002-207.998-80-312.002
		C6795,4277.002,6780,4250,6780,4247.002c0-2.002,22.002-7.002,49.004-10c73.994-9.004,140-44.004,205.996-112.002
		c102.998-102.998,162.998-259.004,200-515.996c34.004-237.002,9.004-349.004-77.998-349.004c-72.002,0-90,35-107.002,207.998
		c-30,316.006-97.998,504.004-200.996,557.002c-69.004,35.996-188.008,5-297.002-77.998C6515,3920,6474.003,3894.004,6460,3890
		c-22.002-5-25.996-15-35.996-72.998c-9.004-56.006-7.002-91.006,12.998-234.004c12.998-92.002,23.994-220,25-283.994
		c2.002-104.004,0-120-22.998-165c-33.008-67.002-51.006-68.008-83.008-2.002c-35,72.998-58.994,165.996-105.996,417.998
		c-65,349.004-80.996,477.002-87.002,702.002c-5.996,230.996,4.004,352.998,42.998,485.996
		C6292.001,5032.998,6500,5192.998,6685.996,5105.996z M2787.998,4357.002c63.003-61.006,123.003-176.006,151.001-287.002
		c22.002-87.002,61.001-314.004,61.001-355.996c0-37.002,7.998-47.002,47.998-68.008c65-32.998,66.001-105,1.001-127.998
		l-31.001-10.996l7.002-116.006c2.998-63.994,10-178.994,16.001-255.996c13.999-212.002,11.997-284.004-8.999-325
		c-18.003-35.996-38.003-45.996-77.002-35.996c-31.001,7.998-45,51.992-45,145c0,41.992-3.999,138.994-8.999,215.996
		c-6.001,77.002-13.003,197.002-16.001,265.996l-7.002,126.006l-185.996,5.996C2473.999,3540,2470,3539.004,2470,3459.004
		c0-65,43.999-269.004,85-399.004c36.001-110,52.998-235,36.001-259.004c-12.002-18.994-33.999,5-91.001,99.004
		c-138.999,229.004-223.999,564.004-223.999,885c0,175,13.999,247.002,73.999,370.996c82.002,170,222.002,274.004,345,258.008
		C2726.001,4410,2747.002,4397.998,2787.998,4357.002z"/>
	<path fill="#FF3300" d="M6545,4910.996c-85.996-52.998-142.002-171.992-170-358.994c-15-97.998-19.004-341.006-7.002-442.002
		c7.002-54.004,7.002-54.004,22.998-30c9.004,14.004,66.006,85,126.006,157.998c128.994,155,167.998,222.002,185,319.004
		c10,60,8.994,82.998-6.006,158.994c-25,131.006-66.992,214.004-105,214.004C6582.001,4930,6562.001,4922.002,6545,4910.996z"/>
	<path fill="#FF3300" d="M2533.999,4250.996c-65-40-103.999-120.996-125-260.996c-12.998-89.004-6.001-279.004,12.002-310.996
		c6.997-15,17.998-18.008,46.997-15c20,2.998,117.002,7.998,216.001,11.992l178.003,7.002l-7.002,61.006
		c-2.998,32.998-17.002,115.996-31.001,182.998C2811.001,3995,2800,4059.004,2800,4070c0,40-67.998,157.002-102.998,179.004
		C2652.998,4275.996,2577.002,4277.002,2533.999,4250.996z M2673.999,4180c0-14.004-22.998-117.998-50-232.002
		C2571.001,3724.004,2575,3730,2502.998,3730c-30,0-30.996,0.996-37.998,57.998c-7.998,70,10,250,31.001,312.998
		c21.997,69.004,80,112.002,143.999,107.002C2670,4205,2675,4202.002,2673.999,4180z"/>
</g>
</svg>
