<?xml version="1.0" encoding="utf-8"?>
<!-- Generator: Adobe Illustrator 16.0.0, SVG Export Plug-In . SVG Version: 6.00 Build 0)  -->
<!DOCTYPE svg PUBLIC "-//W3C//DTD SVG 1.1//EN" "http://www.w3.org/Graphics/SVG/1.1/DTD/svg11.dtd">
<svg version="1.1" id="Layer_1" xmlns="http://www.w3.org/2000/svg" xmlns:xlink="http://www.w3.org/1999/xlink" x="0px" y="0px"
	 width="800px" height="761px" viewBox="0 0 800 761" enable-background="new 0 0 800 761" xml:space="preserve">
<metadata><?xpacket begin="﻿" id="W5M0MpCehiHzreSzNTczkc9d"?>
<x:xmpmeta xmlns:x="adobe:ns:meta/" x:xmptk="Adobe XMP Core 5.3-c011 66.145661, 2012/02/06-14:56:27        ">
   <rdf:RDF xmlns:rdf="http://www.w3.org/1999/02/22-rdf-syntax-ns#">
      <rdf:Description rdf:about=""
            xmlns:xmp="http://ns.adobe.com/xap/1.0/"
            xmlns:xmpGImg="http://ns.adobe.com/xap/1.0/g/img/">
         <xmp:CreatorTool>Adobe Illustrator CS6 (Windows)</xmp:CreatorTool>
         <xmp:CreateDate>2023-09-25T20:34:17+02:00</xmp:CreateDate>
         <xmp:Thumbnails>
            <rdf:Alt>
               <rdf:li rdf:parseType="Resource">
                  <xmpGImg:width>256</xmpGImg:width>
                  <xmpGImg:height>244</xmpGImg:height>
                  <xmpGImg:format>JPEG</xmpGImg:format>
                  <xmpGImg:image>/9j/4AAQSkZJRgABAgEASABIAAD/7QAsUGhvdG9zaG9wIDMuMAA4QklNA+0AAAAAABAASAAAAAEA&#xA;AQBIAAAAAQAB/+4ADkFkb2JlAGTAAAAAAf/bAIQABgQEBAUEBgUFBgkGBQYJCwgGBggLDAoKCwoK&#xA;DBAMDAwMDAwQDA4PEA8ODBMTFBQTExwbGxscHx8fHx8fHx8fHwEHBwcNDA0YEBAYGhURFRofHx8f&#xA;Hx8fHx8fHx8fHx8fHx8fHx8fHx8fHx8fHx8fHx8fHx8fHx8fHx8fHx8fHx8f/8AAEQgA9AEAAwER&#xA;AAIRAQMRAf/EAaIAAAAHAQEBAQEAAAAAAAAAAAQFAwIGAQAHCAkKCwEAAgIDAQEBAQEAAAAAAAAA&#xA;AQACAwQFBgcICQoLEAACAQMDAgQCBgcDBAIGAnMBAgMRBAAFIRIxQVEGE2EicYEUMpGhBxWxQiPB&#xA;UtHhMxZi8CRygvElQzRTkqKyY3PCNUQnk6OzNhdUZHTD0uIIJoMJChgZhJRFRqS0VtNVKBry4/PE&#xA;1OT0ZXWFlaW1xdXl9WZ2hpamtsbW5vY3R1dnd4eXp7fH1+f3OEhYaHiImKi4yNjo+Ck5SVlpeYmZ&#xA;qbnJ2en5KjpKWmp6ipqqusra6voRAAICAQIDBQUEBQYECAMDbQEAAhEDBCESMUEFURNhIgZxgZEy&#xA;obHwFMHR4SNCFVJicvEzJDRDghaSUyWiY7LCB3PSNeJEgxdUkwgJChgZJjZFGidkdFU38qOzwygp&#xA;0+PzhJSktMTU5PRldYWVpbXF1eX1RlZmdoaWprbG1ub2R1dnd4eXp7fH1+f3OEhYaHiImKi4yNjo&#xA;+DlJWWl5iZmpucnZ6fkqOkpaanqKmqq6ytrq+v/aAAwDAQACEQMRAD8A9U4q7FXYq7FXYq7FXYq7&#xA;FXYq7FXYqtlliijaSV1jjQVZ2ICgeJJwEgblMYmRobliesfmv5G0wlW1FbuUf7rtAZv+HH7v/hsw&#xA;MvamCH8V+7f9ju9L7OazNuIcI/pbfZz+xhmp/wDOQUYqul6QW8JbqQD/AJJxg/8AE812Tt4fwR+f&#xA;4/S7/T+xR/ymT4RH6T+pi1/+dnnu6r6M8FkDtSCFT+MvqnMHJ2znlyIj7h+u3c4fZPRQ5iU/ef1U&#xA;kN55986XZPra1eUPVY5WjX/gYyozEnrs0uc5fN2WLsbSQ5YofK/vSi41C/uRS4uZZgevqOzd69yc&#xA;x5ZJHmSXOhghD6Yge4KGRbXYqiLfUtRtgBb3U0IG4EcjJ0+RGTjkkORIaZ4Mc/qiD7wmtp57852h&#xA;Ho61eUHRXmeRf+BcsMvhrc0eU5fNw8vY+knzxQ+QH3Mh0387fPFoR9Ylgv0HUTxBTT5xenmXj7Zz&#xA;x51L3j9VOrz+yejn9IlD3H9dsz0X8/dHnIj1ewls2O3rQsJk+ZBCMPo5ZssPbsD9cSPdu6DV+xmW&#xA;O+KYn5HY/pH3PQtF8zaBrcXqaVfRXYAqyI1JFH+VG1HX6Rm2w6nHlFwILy+r0GfTmssDH7vnyTPL&#xA;3DdirsVdirsVdirsVdirsVdirsVdirsVdirsVdirsVSjzD5t8v8Al+D1dVvEgJFY4ftSv/qxrVj8&#xA;+mY+fVY8QuZpztF2bn1RrFEnz6D4vKvMf5930paHQLNbaPcC6uaPIR2Kxj4F+ktmi1HbkjtjFeZe&#xA;00PsbCO+eXEe6Ow+fM/Y831jzJr2tSepql/NdmtQjseCn/JQURfoGabNqMmQ+skvWaXQYNOKxwEf&#xA;v+fNLcpct2KuxV2KuxV2KuxV2KuxV2KuxVfBcT28yT28jQzRmqSxsVZT4hhQjDGRBsc2M4RkKkLB&#xA;73ovlb87vMOmlINYX9KWYoPUNEuFHs42f/ZCp8c3Gm7ZyQ2n6h9ryvaPsngy3LF+7l/sfl0+Hyey&#xA;+WvN+geY7b1tLuhIyistu3wzR/6yHf6Rt750Wn1ePMLgf1vA6/szPpZVljXceh9xTnMlwHYq7FXY&#xA;q7FXYq7FXYq7FXYq7FXYq7FUJqmraZpNm97qNylrbR/akkNBXwA6knsBvleXLHHHikaDfp9NkzTE&#xA;McTKR7njXnH88b66Mlp5bjNpb7qb6QAzMP8AIXog+dT8s5zV9tSltj2Hf1e97L9kYQqeoPFL+aOX&#xA;x7/u97y25urm6ne4upXnnkNZJZGLux8SxqTmjlIyNk2XsseOMIiMQBEdAp4GbsVdirsVdirsVdir&#xA;sVdirsVdirsVdirsVdiqtZX15Y3Ud3ZTvb3MRrHNGxVgfmMlCcom4mi15cMMkTGYEonoXs/kP864&#xA;Lox6d5mKwXBosepABYnPT96Bsh/yh8Pyzo9D2wJenLse/wDW8B2x7KSheTT7x/m9fh3+7n73rCsr&#xA;KGUhlYVBG4IOb94oim8UOxV2KuxV2KuxV2KuxV2KuxViPnr8yNH8qwmJqXWqutYbJDQivRpT+yv4&#xA;ntmv1vaEMArnLu/W7zsjsLLrDf04+sv1d5fP3mXzXrfmS+N3qlwZCK+jAvwxRA9kTt8+p7nOT1Oq&#xA;nmlci+naDs7DpYcOMV3nqfeUozHc92KuxV2KuxV2KuxV2KuxV2KuxV2KuxV2KuxV2KuxV2KuxVn/&#xA;AOXf5q33l149P1Ivd6KTQCvKSD3jr1XxT7vfbdn9pyw+mW8PueY7b9nYaoHJj9OX7Je/z8/m+gLG&#xA;+s7+0ivLOZZ7WdQ8UqGoIOdZCYmAYmwXzHNhnjkYTFSHMK+Sa3Yq7FXYq7FXYq7FXYq85/Mz81It&#xA;AD6TpBWbWWFJZdmS2B8R0Z/Be3U+B0/aPaYxeiH1/d+16vsD2dOprLl2xd3WX7PP5PA7m5uLq4ku&#xA;LmVpp5WLSSuSzMx7knOUlIyNncvpePHGERGIqI6KeBm7FXYq7FXYq7FXYq7FXYq7FXYq7FXYq7FX&#xA;Yq7FXYq7FXYq7FXYqzH8u/zEvfKt96UvKfR7hh9Ztu6k7erHXow7j9r7iNj2fr5YJUd4HmP0h0Pb&#xA;nYkNZCxtljyP6D5fc+jrG+tL+0ivLOVZ7WdQ8UqGqspzsYTEgJRNgvlGbDPHMwmKkOYV8k1uxV2K&#xA;uxV2KuxV5x+af5mroMTaRpLhtZlX97KKEWyMNj/xkI6Dt18M0/afaXhDgh9f3fter9newPzJ8XKP&#xA;3Q5D+d+zv+TwGSSSSRpJGLyOSzuxJYsTUkk9Sc5Mm9y+mxiAKHJrFLsVdirsVdirsVR9joGtXyh7&#xA;SymljavGQKQhp/lmi/jlU80I8yA4ubWYce0pAH7fknKaTJY24XVPLMkvFfiuoJZgQB1ZqGVK/dlH&#xA;iiR9Mx7tv2OAdSMkv3ecDyIj+w/eopo/lnUiE0vUHtLk7JbagAAx/wAmVPhHsDucJy5IfVGx3j9T&#xA;YdVqMW+WAlHvh+opNqGm32nXLW17C0My78W6EeII2I9xmRjyRmLBsOfgzwyx4oGwhsm3OxV2KuxV&#xA;2KuxV2KuxV2KuxV2KuxV2KvRPyl/MJtCv10jUZT+h7t6I7Ha3lb9rfojH7Xh18c2/ZWv8KXBL6D9&#xA;jyvtL2J+Zh4uMfvY/wCyH6x0+T6CzrXzB2KuxV2KuxViH5k+e4fKuj1hKvq12CtlEd+PjKw/lX8T&#xA;9Oa/tHWjBDb6zy/W73sLsc6zLv8A3UfqP6Pi+bLm5nubiS4uJGlnmYvLK5qzMxqSSc4yUjI2eb6z&#xA;jhGERGIoBTwM3Yq7FXYq7FXYq7FUxt/8QamVgtzc3YjAVY1LuqAbD2UZVLghuaDiT8DD6pcMb92/&#xA;62U6J5S88wMsiX31BQamNpTJ9PprzQ/ScwM2rwHYji+DptX2lopbGPH8K+3Ysi1DyRYapCr6gyjU&#xA;B/eXdqgh5/66EuCffMSGuMD6fp7i6rB2tPCah9H82RuvcdlSTyXY3Gkppt5cS3KQmtrcPx9WIfyq&#xA;1N19j/Sg/PET4oiu/wA2Me1Zxy+JACN8x0P7fx3pC/5URn7GplfHlCD+pxmQO1T/ADft/Y7Ie0Z6&#xA;w/2X7Fh/Kg9tU/5If9fMkO1B1j9rL/RJ/tf+y/YhLj8rdXU/uLuCQf5fND+Cv+vLI9p4+oLfD2ix&#xA;H6oyHyP6klvvJfmWzBaSxeRK0Dw0l+miVYfSMyYavHLkXPw9q6fJykB79vvSVlKkhgQRsQeuZDsA&#xA;bdhS7FXYq7FXYq7FXYq7FXYq+gPya86trOjnSL2TlqOmqAjMfikt+it7lPsn6M6zsjWeJDgl9Ufu&#xA;fMfansrwMviwH7vJ9kv28/m9GzcPKOxV2KoPWNWstI0y51K9fhbWqGSQ9zToq16sx2A8crzZY44m&#xA;UuQb9Lpp58kccB6pF8teafMl95i1q41S8NHlNIogarHGv2EX2H4nfOG1OolmmZl9k7P0MNLhGOHT&#xA;me89SlWUOc7FXYq7FXYq7FUZpekajqlx9XsYTK/7RGyqPFmOwyvJljAXI04+o1WPDHimaehaH+W2&#xA;m2oWXU2+uT9fSWqwg/gzfTt7ZqM3aUjtDYPL6vt7JPbH6Y/b+z8bsvgt4LeJYoI1iiX7MaKFUfID&#xA;bNdKRkbJt0U5ykbkbKpkWLsVdirsVdirsVdiqA1LQ9J1NaX1qkxpQSEUcD2cUYffl2LPOH0lyNPq&#xA;8uH6JEfd8uTCNc/LKePlNo8vqr1+qykB/wDYvsp+mnzzaYO0gdp7eb0Wk9oAdsorzH6mDz289vM0&#xA;M8bRSoaPG4KsD7g5s4yBFh6KE4yFxNhZhZuxV2KuxV2KuxV2Kpv5S8wz+XvMFnqsVSIHpNGP24m2&#xA;kX6VO3vmRpdQcWQTHT7nA7S0UdVgliPUbeR6Pqu2uIbm3iuYHEkE6LJE46MjjkpHzBzu4yEgCORf&#xA;GMkDCRjLYg0VTCwdirwz88POJvNRTy7aP/o1kQ96VOzTkbJ8owfvPtnMdtavil4Y5R5+/wDY+jey&#xA;XZfh4zqJD1T+n+r3/H7ve8szRPZuxV2KuxV2KuxVP/KnlK61ycuxMNhEaTT03J/kSv7X6sxNVqhi&#xA;HfJ1faPaUdPGuczyH6T+N3rGm6ZY6bara2UQihXeg6k+LHqTmgy5ZTNyLxWfUTyy4pmyisraXYq7&#xA;FXYq7FXYq7FVOaeCCJpZ5FiiXdnchVHzJwxiZGhuWUIGRoCyx29/MTy1bMVSWS5I2PopUfQXKA5m&#xA;w7OynuDtcXYeonzAj7z+q0boHmzSdbaSO0MiTRjk0UqhW41pUULD8cqz6SeIWeTj6zs3LpwDKqPU&#xA;JzmM4CUeYPLOm63blLheFwopDdKPjX/mpfY5k6fUyxHbl3Odou0Mmnlcfp6jo8l1vQ7/AEe8Ntdp&#xA;QGpilH2JFHdT+sds3+HNHJGw9vpNZDPDij8R3JflzlOxV2KuxV2KuxV2Kvob8k9eOo+UBZStyn0u&#xA;Qwb9fSb44z+JUfLOu7Gz8eHhPOO36ny32s0fharjH05Bfx5H9fxegZtnmEk85+Y4/Lvlu91RqGWJ&#xA;ONsh/amf4UH37n2zG1moGHGZ/L3uw7K0J1Wojj6Hn7hzfK9xPNcTyXE7mSaZmklkbcszGrE+5Jzh&#xA;ZSJNnm+zwgIxEQKA2WYGTsVdirsVdiqdeVPLc2uah6VSlpDRrmUdh2Vf8pv7cxtTqBijfXo67tHX&#xA;jT475yPIPYLa2tbK1SCBFhtoVoijYAD5/rznZSMzZ3JeFyTlkkZS3kUNN5h0KFuMuoW6t/L6qV+4&#xA;HJjTZP5p+TdDRZpcoS+RU4/NHl2QgLqVvU7Csir+umSOlyj+Espdn6gfwS+SYxyxSoHidXQ9GUgg&#xA;/SMolEg0XElEg0dl+BDsVdirsVS7zBrCaRpU18yGQx0CJ0qzGgqfDLtPh8SYi5Wi0pz5RC6t49rG&#xA;vapq8/q3sxcA1SIbRp/qr/mc6PFhjjFRD3el0ePAKgPj1Qlvb3FxKsNvG0srbLGgLMfoGWEgCy3z&#xA;nGIuRoPTvInlG40gSX178N3OnprCDXghIY8iNuRKj5Zo9dqxk9MeQeP7Y7TjnqEPpBu+8svzXOjd&#xA;iqXa7odnrNg1rcih3MMwFWjfsw/iO+XYM8scrDlaPWTwT4o/Ed7xnU9NutNvpbK6XjNEaEjow7Mp&#xA;8CM6XHkE4iQ5Pf6fPHLATjyKFybc7FXYq7FXYq7FXpP5EaqbbzXPYM1I9Qt2Cr4yQnmv/Cc83PYm&#xA;XhymP84fd+C8l7Yabj0wn1hL7Dt99Pfc6t8zeG/nz5jNzq9roMLfurFRPcgHrNKPhBH+THv/ALLO&#xA;Y7c1FzGMfw7n3/2fe+jex2h4MUs55z2HuH6z9zyvNE9m7FXYq7FXYqqWttPdXMVtApeaZgkajuWN&#xA;BkZSAFlhkyCETKXIPa/L+iwaNpcVlF8TD4ppP55D9pv4D2zmtRnOSVvn2t1cs+QzPw8gwf8AM1dX&#xA;OoRlhIdMEa8CK+mHqeXKm3L55tOzeDh2+p6LsA4uA8vEv40wjNm9E7FWX/lza60dXSeAOmnAN9aY&#xA;1Eb/AAkACuxblTp0zX9oyhwUfq6Oi7cyYfC4ZV4nTvepZoXjVEXlqbs2YlX60qCUw1+LgTTlTwrk&#xA;uA8PFWzPwpcPHXpur82rO7iu7dbiIOqNUASKyMCpKmqsAeowzgYminLiMJcJ+zdXyDWhtR0+11Cy&#xA;ls7pecEwo46HY1BB8QRXJ48hhISHMNuDNLFMTjzCRW/5d+WIm5NDJNQ1Akkan/C8czJdo5Tyofjz&#xA;t2U+3NTLkQPcE9s9OsLJOFnbxwKeojULX5065hzyyn9Rt1uXPPIbmTL3onINTsVdirsVYr598uDU&#xA;9NN5Av8AptmpZaDd4xuyfR1X+3M/QajglwnkXc9ja7wcnBL6JfYe/wDX+x5Rm/e2dirsVdirsVdi&#xA;rIPy+vjZedtFnB41uo4mPgsx9Jq19nzL0E+HPA+f37Or7bw+Jo8sf6BPy3/Q+oL68t7GynvbhuFv&#xA;bRtLK3gqAsfwGdvOYjEyPIPj2HFLJMQj9UjQ+L5L1nVLjVdVu9SuP767leZh1pyNQo9lGwzgc2Q5&#xA;JmR6l9t0unjhxRxx5RACDytyHYq7FXYq7FWf/lloNWk1mddhWKzr49Hcf8RH05qe0s9DgHxeY7f1&#xA;nLDH3y/QP0/J6FmneXaIBBBFQdiDiqi1lZv9qCNu26Kf4ZYMsxyJbBlmORPzUxpOlqaizgBHQiNP&#xA;6ZL8xk/nS+ZZHU5P50vmUUAAAAKAbADKWlvFULeXunWVJryaK3LDiryMqkgb0BPXLIQlLaIJbcWL&#xA;Jk2gDL3Iex8xaJfXP1a0vI5p6FuC13A60qKHLMmlyQFyGzbm0ObHHilEgIKTz15VjkaN76jISrAR&#xA;THcGh3CZMaHN3faHIj2PqSLEPtj+tMbvW9Is2iW6u4oTMvOLmwFV8d+2VRwTldDk4uPSZZ3wxJpE&#xA;W93aXK87eaOZevKNg4+8E5XKEo8xTVPFKBqQI96tkWDsVdirsVdirsVeOedtEGla5Ksa0trn99AB&#xA;0AY/Ev8AsW/CmdJo83iYweoe87J1fjYQT9UdikOZTs3Yq7FXYq7FUVpMxg1SznFQYp43qNj8Lg5P&#xA;EamD5tGphxY5Dvifue8fnfrx0/ymunxtSfVZBEabH0Y6PIfv4r8jnVdtZ+DFwjnL7nzb2S0fi6rx&#xA;Dyxi/idh+k/B8+5yT6g7FXYq7FXYqr2NnNe3kFpCKyzusaeALGlT7DvkZzEQSejVmyjHAyPIB7lY&#xA;WUFjZQ2cApFAgRfE07mnc9TnLZJmcjI9XznNllkmZy5lEZBrdirsVaZgoLMaAbknoBioDC9W/M7T&#xA;7eUR6fAbsA/HKx9NKf5OxJ+7Npi7MkR6jT0Gm9n8kheQ8PlzSPz5qmrfX4nivJBpl5Ck1skbFV4k&#xA;UIah3Nd/pzK0OKIjy9USQXY9j6fFwEGI8SMiDapd22oeYvKVhNFBJPqFhIYHJBq8bDZwT9rotcET&#xA;HDmIJAjIWxx5Mel1UwSBCYv3Hu+9X8n+UNf0/WbfULuJLe3iD+oGdSxDIV6KW7nvkNXq8c8ZjE2S&#xA;19qdp4MuI44nika6eanqfkvSTqNxPLrttbwyyNIsbFeYDHlxpzXpXJY9XMRHokSy0/auXwxEYpSI&#xA;Fda+5GeYYPJmq3EE02siL0IVgVY/jFEJNeh/myGmOaAPouzfOnH0M9XhiQMV2b3SqPTPItvMGXX5&#xA;1dejRxuD9DKhy+WXOR9A+Yc06jWyH91H4kfrZLpHmXy9aAq3mCW7iAoEuUNR78jGrn78wculyz/g&#xA;A9x/a6nU6DPP/IiJ/on9tJ/Y69o18wS0vYpZD0jDAP8A8CaHMPJp8kOYdZm0ebHvKJAR+UuM7FXY&#xA;q7FWI/mVpgudCW8UfvbJw1e/pyEKw+/ifozY9m5anw97u+wdRwZuDpMfaN/1vLM3r2jsVdirsVdi&#xA;rsVeifnlq5vPOAsVasWmwJHx7epL+8Y/8Cyj6M2/bWXizcP80fteV9kdN4ek4+uSRPwG363neah6&#xA;p2KuxV2KuxVmf5YaYJ9Vnv3FVtE4x/8AGSWoqPkob781vaWWocPe8/7QajhxCA/iP2D9tPTs0byD&#xA;sVdiqX61rdjo9k11dvQdI4x9t2/lUZdhwSySoOTpNJPPPhiP2MR0DXfNWta8l16LLo5qksRFIRGQ&#xA;f2m+23y/Vmyz4MOLHV+v7bd7rdHptPgMb/e9O+/0BLr7y75N068me91UyR8yY7K2AZ1B3Csw5/jT&#xA;LoajNMCo15lysOu1eWAEMdGvqly/R+lfcefdLgggt9N0lHS1XhbS3dHZR7AVO/8ArYI6KRJMpHfn&#xA;X4/Qxh2NkkTLJkPq5iP4/QlV5598z3OwuvQT+WFVX8d2/HLoaLFHpfvc3F2Np4fw370lub69ujW5&#xA;uJJz1rI7P/xInMmMREUBTsIYYQ+kAe4OtLG8vJPStIJLiTqVjUuQPE0xlMRFk0uTNDGLkREea680&#xA;6/snCXlvJbs26iRStflXrghkjLcG0Ys8MguBEvch8m2uxVwJBBBoRuCMUEM18q/mBcWrJZ6sxmtT&#xA;RUuTvJH/AK38y/jmt1WgEt4bF5/tHsWM7ni2l3dD+p6TFLFLGssTiSNwGR1IIIPQgjNIQQaLyUom&#xA;Jo7FfgQ7FUNqNmt7p9zaMaC4ieLl1pzUiv0ZZinwyEu5twZfDnGf80gvCGVkYqwoymjA9iM6l9JB&#xA;vdrCl2KuxV2KuxVNvN1+dQ806teVqs13MUPX4A5Cf8KBmRq58eWR8y4PZmHwtNjh3QH3bpTmO5zs&#xA;VdirsVdir1j8uLP6v5aSX9q6keU7bgA+mB/wlc0HaM7yV3PEdu5eLUEfzQB+n9LKcwHTuxVTnnhg&#xA;iaaeRYokFXkchVA9ycMYkmgyhAyNAWXnGv8Amby82oyXUcLavdL8MLXHw2sSjoEj6v7165u8GnyC&#xA;PCTwDy5n4vV6Ls/P4YiT4UetfUfeejHtT80a3qQKT3LLB0FvF+7jA8OK9fpzLxaeEOQ37+rtdP2f&#xA;hxbxjv3ncpVl7msn8ieW7PWry4a85Nb2yqTGp48mcmlSN6UU9MwtbqDiiK5l0/bGvnp4Dg+qX6G/&#xA;Pnluz0a8t3sqrbXStSJiW4tGRyoTvSjDrjotQcsTfMI7H189RAif1R/SlPl7RZtZ1SKyjPFTV5pO&#xA;vCNftH+A98vz5hjiZFztbqxgxmZ+HveyaZpdjplotrZxCOJetPtMf5mPc5zeXLKZuReB1GonmlxT&#xA;NlUvbG0vrZ7a7iWaBxRkYfiPA+BGCGSUDcTRY4s0schKJoh4/wCbPLkmh6kYQS9rMC9tIepXup/y&#xA;l750Wl1Ayxvr1e77N1w1GO/4hz/Hml+maXfandra2URlmbeg2AUdWY9gMtyZIwFy5OTqNRDDHima&#xA;DNbf8qWMQNzqIWUjdY4+Sg/6xZSfuGa2Xam+0Xn5+0e/pht5lJ9c/L/WNNRp4CL22UVZ4xR1A7tH&#xA;v+BOZGDXQnsdi5+j7axZTUvRLz5fP+xW8jebm02ddPvX/wBx8rfA5/3U57/6p7/fkdbpPEHFH6h9&#xA;rX2v2Z4seOA9Y+39r1MGu46ZoXjG8VdirxbzhZ/VPMuoRdmlMq7U2lAkp9HKmdNpZ8WOJ8n0DszL&#xA;x6eB8q+Wyp5X8qXevTvxcQWsNPVnI5bnoqjap/VkdTqhiHeWPaHaMdMBYuR5BGeaPIlzo1qLyGf6&#xA;1aghZTx4shOwJFWFK7VyvTa0ZDRFFx+z+2I6iXARwy6ebF8zncuxVfbwtNcRQrXlK6oKCpqxp0wx&#xA;FmmE5cMSe5YSSancnqcDN2KuxV2KuxV2KvcPLkIh0DTowKUtoiQPEoCfxOcxqZXkkfN8610uLPM/&#xA;0j96Y5Q4rsVeTeevMsmp6i1pBJ/uPtW4qB0dxsznx8B/bnQ6LTeHGz9R/FPbdj6AYcfFIeuX2DuY&#xA;vma7l2KuxVn/AOVH2tU+UH/MzNV2p9MXmPaT/J/536EX+akAbS7OfvHOUH+zQn/jTKuyz6pBo9nZ&#xA;/vJR74/cf2t/ldpyx6bc37L+8uJPTQn+SMdvmzGvyx7TyXIRX2hz3kjDpEX8SyvVr9dP0y6vWofQ&#xA;jZ1U7AsB8K/Sds1+HHxzEe90mmwnLkjD+cUF5W8wJrmlrclRHcIfTuIx0DgVqtd6EHbLdVp/ClXR&#xA;ye0dEdPk4ecTuEs/MmySfy6bggc7SRHVqb0c8CK+/IH6Mv7NkRkrvDl9g5THUcPSQP61P8tNNig0&#xA;M3tAZrx2q/fhGSgX7wTku0shM+HoGXb2cyzcHSI+07snv763sbOa8uW4wwqWc9/kPcnYZgY8ZnIR&#xA;HMunw4ZZJiEeZSXyt5wh16a5hEBt5IaPGpblyjJpXoKEHr88ytVoziAN27HtHss6YRN8QP3sO/MX&#xA;QINP1CK8tUCQXnLnGOiyLStPAMDWnzzY9n5zONHmHe9h62WWBhLcw+5kn5d+YWv9PbT7hq3NmBwJ&#xA;6tD0H/A9PuzC7R0/DLiHI/e6ntzReHPxI/TL7/2/rZa7qiM7GiqCWJ7AZrwLNOkAs0GNRa75jazX&#xA;WDZwtpLD1PqyF/rYhr9v+QmnxU8MzzgxcXh2ePv6W7aWj04n4XFLxeV7cN93f5WxT8yFhnvrDUrd&#xA;le3vLeiOv7RRia/c4zO7PsRMTziXddhExhPHL6oy+/8AsZp5I08WXlqzUgCSdfrEhHf1d1r/ALDi&#xA;M1muycWU+WzoO1s3iaiXcNvl+20T5qaJfLmpGWnH6u4Ff5iKL/w1Mjo/72PvaezgTqIV/OH7Xied&#xA;K+huxVNPKtv9Z8z6Rb0qJb23Qjfo0qg9Mv0sbyxH9Ife4XaM+DT5Jd0JfcUryhzXYq7FXYq9I8m+&#xA;U9EvfLKT3cAlmuzJylJIZArlBwI6fZrmm1mrnDLUTsHku1O0s2PUGMTQjXx2vdgWr6bLpmp3FjLu&#xA;0DlQ38yndW/2SkHNriyCcRIdXptNnGbGJjqHuVunCCNP5VVdumwpnMZD6j73zmZuRKH1HV9N06MS&#xA;X1wkCn7IY7n5KNz9GSx4ZzNRFtuDTZMpqESWMeYvP+jnSZ49LuTNeSr6aEI6cQ2xarqvQdMztNoJ&#xA;8YMxsHcaHsXL4oOSNRHmP0PMc3b2D0zyP5R079Dpe6hbJcT3Y5Isqhgkf7NAairfarml1urkJ8MT&#xA;QDyHa/aeTxTCEjGMe7qfxsgvNX5dokT3uiqfhHKSy3Y07mMnf/Yn6PDLNL2hZ4Z/NyOzu3CSIZv9&#xA;N+v9f9rAM2z07O/ypkAutRiruyRtx7niWFf+GzV9qD0j3vNe0cfTA+ZT78x7YTeWJJP+WeWOQfSf&#xA;T/5mZidnSrL7w63sLJw6gD+cCP0/oRHkNOHlSxB6kSN98rnIa83lLV2wb1U/h9wUfzFmEfledD/u&#xA;6SNB9Dh/+NMl2cLy/Bs7DhepB7gfur9LE/y21iGy1Wa0nkWOK8QBGbYeqh+EVPSoZvppmw7QwmUL&#xA;HMO77e0pyYhKIsxP2H8BPvzL1iCLSl01HVp7p1aRAQSsaHlU+FWpT6cxezsJ4jI8g6zsDSmWXxCP&#xA;TEfaf2Jn5AI/wnY+3q1/5HPmPrx+9Pw+5xO2f8al8P8AchLfzQvGi0a3tlNPrE1X91jFafeRl/Zk&#xA;LkZdw+9y/Z7FeUy/mj72OfloJP8AEZ414+hJz+VV/jTMztGvC373a9v1+X/zgyD805IxpNnEaeo0&#xA;/JfGioQf+JDMXsv6pOr9nYnxZHpw/pYN5c1ZtK1m2vASI1bjMB3jbZvw3zZ58XiQMXpNdphmxSh1&#xA;6e97BrsgGhahItGAtZmHgf3ZOc5gH7yI8w8Jo4/voD+kPvW+XR/zr+mf8wkH/JtcOpP7yXvKdd/f&#xA;z/ry+9575osOPq6ZFU/U9QC2q9FWO/j9UIPZWjObrTTupfzo/wC5eo7PzXWQ/wAePf3wNX8i9Qii&#xA;SKJIoxxjjUKijsAKAZoJSs28dKRkSTzLFPzMvvQ0BbYEc7uVVK9+CfGSP9kFzYdmwvJfcHd9gYeL&#xA;PxfzR9p2/W8szevZuxVlX5W2n1rz9o8dKhJWmPt6UbSfrXM7syHFqI+/7nS+0OXg0WQ+VfMgMbvb&#xA;c215PbE1MEjxk+PBiv8ADMOceEkdztsU+OAl3gFqztZbu7htYqerO6xpXpyc0FfvyuUhEEnouXII&#xA;RMjyAt6h/wAq18vfUfQ/e/Waf718jy5f6n2Ke1PpzSfylku9qeO/l7Px8W3D/N/bzeaapp0+nahP&#xA;Yz/3kDFSR0I6qw9mG+brHkE4iQ6vX6fPHLjE48i9W8g/8olY/wDPX/k8+aDXj98fh9zxXbP+NT+H&#xA;+5DEfzQs/S1q3uQtFuIQC3i8bEH/AIUrmx7NneOu4u89nst4TH+bL7/wWe6pq8Wm6I+oygHhGrKn&#xA;8ztQKv0k5q44ePLwjveZ0+lOXMMY70u0TyzFIq6prUYu9VuQHkEw5JEDuI0Q7DjlufUkeiG0Q5er&#xA;15H7vCeHHHu6+ZPmm17ouk30JiurSKRCCASoDCv8rChX6Mx4ajJE2CXCxavLjNxkQ8n8x+WJ9J1l&#xA;LKMmSG5I+qSHqQxpxPbkp6/f3zf6fUDJDi69XtdD2hHNiMzsY/U9ighjghjhiHGOJQiL4KooBnOS&#xA;lZJ73hJyMiSeZX5Fi81/Mby0ttONXtUpDO1LpQNlkPR/k/f3+ebvs/U8Q4DzD1vYWv4x4UuY5e7u&#xA;+H3e5S/K1yNcuU7G1Y/dIn9cPaY/dj3/AK2ftCP3MT/S/QWdeabZbny7qMRFf3DuB/lRjmv4rmr0&#xA;kuHLE+bzfZ2Tg1ED/SH27IXyI/LypYHpQSD7pXH8Mnrh+9l+Ojd2wK1U/h9wQP5mf8o4v/MQn/EW&#xA;y3s3+8+Dk9gf4x/mn9DyvN89o7FXpf5XX4k0y6siTzt5RItf5JB0H+yQ/fml7Tx1IS73kfaHDWSM&#xA;/wCcK+X9qH/NWOR/0UEUtVplAG9WPp0FPHJ9l/xfD9Lb7OEDxL/o/pTnyR5Z/Q1gZbgf6fcgGX/I&#xA;UdE/rmNrdT4kqH0h1/a3aHjzqP0R5efmlv5maRqF3bWt5boZYbQSeui7sofiedO4+Hfwy/s3LGNx&#xA;PMuX2BqYQlKEjRlVfbs81zcvXPYPLk7at5OiRjWR7d7Zz3qoMdfuoc57UR4M/ldvCa6Hg6snpxCX&#xA;6UX5TuFn8t6c69BAsf0x/AfxXK9YKyyaO0oGOomP6V/PdjmvCMecoLbifVup7C4XYmogaQMfb4cz&#xA;sG2C+4Sdtoyfyhl0jHIP9Nws5zUPOPLvzOv/AFtahtFaqWkQ5L4PIeR/4ULm97NhWO+8vY+z+Hhw&#xA;mX84/YP22w/Ni752KvSPyIsPX83z3RHw2lo7A/5cjKg/4Utm47EheYnuDyfthm4dKI/zpj7LP6mM&#xA;/mHpx0/ztrNuRQG5eZB/kz/vV/B8wtfj4M8h5/fu7fsTP4ujxy/o1/pdv0KfkSNH812CsKgGRqe6&#xA;xOw/EZqtaaxSZdsEjTTry+8PY85t4N5j+aFkItYtrtQAtzDxYjqXjNCT/sWUZvezJ3jI7i9f7PZb&#xA;xSj/ADT9/wCCyL8tLky+XDGf+Ped0UexCv8Arc5h9pRrJfeHV9v4+HUX/OiP1foQn5p2ofTLO635&#xA;QzGP2pKtT+MYyfZcvUR5N3s7krJKPfG/l/aqX4+v6f5T080KXRhmmTsyQQhnH3HDjHBLLLqP0scP&#xA;7vJqJ/zbA/zpbMsvblbWznuW+zBG8jfJFLfwzW44cUgO8ukxY+OYj3kBi35d69e6nBexXspmmikE&#xA;is38slfhHsCuZ/aOCMCDEU7ntzRwwmJgKBFfJX89wRsmjzlayR6hEit4K9S34oMHZ0t5Dya+x5kH&#xA;JHocZ+z+1lOa50zzzRtYnsvzAv7WeVjBeTSRUcmgbkWioD/wI+ebnNiEtOCOYAep1WlGTQwlEbxi&#xA;D+v9fwZ5e2dve2k1pcLzhmUo49j3HuO2anHMxkCOYeaxZZY5CUeYYB5J0yfSfOd5YT/bS3cI3QOp&#xA;dCrD5jNxrMgyYOIPTdragZ9JGcesh8Ni9EdFdGRhVWBVh7HbNLE0beWBo2GPeQeS+XUt3/vLWaaG&#xA;QeDCQsf+JZm9of3l94DtO2d85kOUgD9jXn22hn0JRPIYoUuITLIBXirNwY/QGrj2eayfAr2NkMc3&#xA;pFnhl+v9CNt/K3lpbZI49Pt5I+I4yMiuzA715mpP35XLV5b5tE+0dQZEmcgffX2JbqH5c+XblD6C&#xA;PZy70eNiwr2qr8tvlTLcfaOSPPdysPbmogfURIef7GOeV7K88v8AnddNuCCtxG6CQVCuhBdGH+yS&#xA;n35m6mQzYOIdHbdoZYarR+JH+Ej58j970WeytJ5oZpolkltyWgZt+JIoSM00ckoggHYvKwyyiCAa&#xA;EuaFvfMOi2NzHa3V5HHcSEKI6kkE9OVK8Rv1amThp8khYGzdi0WbJEyjEmI/Hx+CY5S4rxvzto8e&#xA;l6/NFCoW3nAnhUdArkgj2AYGntnSaPLx4wTze97J1RzYAT9Q2P49zM/yvlLaDPGf913LU+TIh/XX&#xA;Nb2mP3g9363Qe0MazA98f0lNPLxFnd6ho7/CYJmuLRaUBt5zyHHx4OWU5TqfVGM+8UfeHC137yMM&#xA;o6jhl/Wj+sUU2exs3u0vHgja6jUpHOVBdVNdg3XucxhkkI8N7OEM0xEwBPCenRXyDW8Q8y3n1zX7&#xA;+45BlaZlRh0KIeCf8KozqMEOGAHk+iaDF4eCEf6P7SluXOW7FXt3/OP2nFNK1XUSP7+aOBD7QqWN&#xA;P+RudN2DjqEpd5r5f2vnntpnvJjx/wA2JPz/ALEm/P3RTDrFhrCL+7u4jBKR/vyE1BP+sr0/2OY3&#xA;buGpifeK+Tn+xmr4sU8R5xNj3H9o+1hHkR1TzXYFjQEyL9LROB+JzmNaLxSeh7YF6Wfw+8PY85t4&#xA;NAapoWlar6X6QtxP6HIxVZlpypX7JFa8R1y3FnnjvhNW5On1mXDfAavmrWOnWNhEYrOBIIyeRVBS&#xA;ppSp+7Bkyymbkba82eeQ3MmRSrzzatc+V71VFXjVZR7CNgzH/gQcyNDKso83N7IycGpj57fMfrY1&#xA;5cuzcXXlIFuRhS9jI8CqMAP+B45m6mNDJ58Lt9di4Y6jz4D9v67Z9d20V1azW0tfSnRopKGh4uCp&#xA;ofkc1EJGJBHR5nHkMJCQ5g2kvlvyha6FPPLDcSTGZQpDhQAAa9sytTrDlAFU7DX9py1IAIApb56T&#xA;/cAZq8Wtp4JVatKH1Atf+Gw6D+8+BT2Of39fzoyH2MhzCdW8i88etaecLieOqOGimhb3CLuP9kud&#xA;FozxYRfue57IqekETvzB+Z/Q9U069ivrC3vIvsTxrIB1pyFafR0zQZYcEjHueLz4jjmYHnE0tk02&#xA;3fUodQpS5hjaHkP2kcg0PyI2+nJRykQMOhTHPIYzj/hJv4ovKmlIfLKiC71u1Jq637z08FnRXX+O&#xA;Zmr3jCX9H7nZdoHijil/tYH+lJC7ztbtP5W1BF6qiyfRG6ufwXBoZVlCOyZiOpgT318xTyvT/MWt&#xA;6cAtneSRxr9mKvJB3+w1V/DN7kwQnzAezz6HDl3nEE/b83s+m3RvNOtbsihuIY5SB2LqGp+Oc3lh&#xA;wyI7i8BqMfBklH+aSPkxLzgFTzd5dlUD1GlRGP8Ak+qo/wCNjmx0n9xP4/c7zsvfS5h0r9B/UzOZ&#xA;ZGhkWNuMhUhG8GI2OayFWL5OggQCL5PApHd3Z5CWkYkuzGpJPUknOrD6YAAKHJ7R5S1T9J6Ba3DN&#xA;ymVfSnJNTzj+Ek/632vpzm9Zi4MhD5/2lp/Bzyj05j3H8Uxb81oFrps4A5H1UY9yBxI+6pzP7Llt&#xA;IO69nJn1x936U3/La2MPlsSEf70TSSD5Ckf/ABpmP2lIHJXcHB7eycWor+bED9P6U91HSbW/9N3L&#xA;w3MJrBdQnjKletDuKHuCCMxcWYw8wejrcGpljsCjE8weRQXlXUL6+sZ5bp1mSO4kitrlVCerEhoJ&#xA;CBtua9Mt1eOMJADbbdv7RwQxzAiKuIJHcT0R+q3gstMurvvBE8gB7lVJA+k5ThhxTA83G02LxMkY&#xA;d5AeE51L6S7FXYq+m/yt0k6Z5G0uJhSWeM3UnznJdf8AhCoztezMXBgiO/f5vkHtDqfF1syOQPD/&#xA;AKXb77a/NHy/+m/Jt7FGvK5tB9bttqnlECWA92TkBj2ng8TCR1G4+CfZ7W/l9XEn6Zek/H9tPm7T&#xA;Lv6nqNrd9fq8qSEDuEYEjOHyR4okd76xqMfiY5R/nAh7uCCARuD0OcqRT5sg9Z1SPS9Nmv5Y2ljh&#xA;48kSnI8mC9/CuWYMXiSEbq3I0unObIIA0SkuieftM1bUY7COCaKWUNwZ+PGqqWIND4DMrPoJY48V&#xA;25+r7GyYcZmSCAyC+tlurK4tW+zPG8TfJ1K/xzDxy4ZA9xdZhycExIdCD8nlPlS/FtdWJk2+qXu9&#xA;TQhLtPRcmvZSi/fnQ6iHFGVdY/d/a9p2lh44zr+KH+4PEPnZetTOUhkcdVUsK+wrnOwjcgHiYCyA&#xA;8+8h+Y9Z1DX5Ir66eeNoGIQ0ChgykEAADuc3Gu08I47Ap6ftjQ4cWAGEaPEyPz9/yiV//wA8v+Ty&#xA;ZgaD++j8fudV2N/jUPj/ALksgVgyhgaggEEe+Y0hRIdWRReafmnbFdWtLn9mWDh9Mbkn/iYzddmS&#xA;uBHcXrvZ3JeKUe6X3j9ic/llqgn0mWwc/vLN6oP+K5Kn8G5ZjdpYqkJd7r/aDT8OUTHKQ+0fspme&#xA;ax0LsVY1ZzC1896hbMQP0hbQzpXu0I4UH0VP0Znzjenif5pLtssOPRQl/MkR890/vbZLqzntX2Se&#xA;N4mPs6lT+vMPHLhkD3F1uLIYTEh0N/J4NLFJFK8UilZI2Kup6gg0IzqgbfSYyEhY5F7X5XYt5d00&#xA;n/lnjH3KBnN6wfvZPn3aArUT/rFIfORCeZvLTAfEbjia1pQyRj+JzL0n9zP8dHZdlC9PnH9H9EmZ&#xA;Zq3QvDdftxb65fwqvFUuJQi+C8zx/DOpwy4oA+T6Nop8WGB74j7mV/ldqwjubnS5Gosw9aAE/trs&#xA;4HuVofozA7TxXESHR0ntDprjHIOmx/R+PNGfmRFLfX2kaZbUe5laQ8O4DFQrH22b7sr7OIjGUzyc&#xA;fsKQxwyZJfSK/T+xmWnWUVjYwWcX93AioD40HU/PrmsyZDORkeroc+U5JmZ5kpb5m1GaOGPS7I/7&#xA;k9SJigAr+7Q/3kpp0CrXMjS4wTxy+mLl9n4ASck/7vHufM9B8Uy06xgsLGCzgFIoECL4mnUmncnc&#xA;5j5MhnIyPVxM+aWSZnLmWN/mVqIt9BFoD+8vZAtO/CMh2P3hR9OZ3ZuO58Xc7bsHBxZ+LpAfadv1&#xA;vK83r2jsVTHy7pEus67Y6XEDyu5ljYjshNXb/YrU5dp8RyZBEdS4mu1IwYZ5D/CL/V9r6zjjjijS&#xA;ONQsaAKijoABQDO9AoU+JSkSbPMrsKHy7+Yflo+XvNd5ZIvG0kP1izp09GQkgD/VNV+jOH1+n8HK&#xA;Y9OY9z7F2Jr/AM1pozP1DaXvH6+fxeheTtTTUPL1pIGrJCggmFakNGOO/wDrCjfTnH6zFwZD3Hd5&#xA;ftTTnFnkOhNj4/ikV5hSN9B1FZKBDbS1J7UQkH6DlemJGSNd7ToSRnhX84fe8d0O9FjrFldluKRT&#xA;I0h/yK0f/ha50maHFAjvD3msxeJilHvB+fR7nnKvnLx3WLRLHzTf2UjBILh2Ut0VVmpJGT7IxUn5&#xA;Z0uGfFjEur3mlyHJpoTH1RH3bH57/N6PomrPqWgu83w3kCvBeRnqssYo1fn1zTZcXBmFfSSCHk9X&#xA;phiz0PoNGPuLzv8AL6Qp5rtFHSRZVP8AyLZv4ZtteLxF6rtqN6aXlX3hn3n7/lEr7/nl/wAnkzU6&#xA;AfvR8fueZ7G/xqHx/wByUz0Oc3GjWE5NWkt4mY+5QV/HKdRGskh5uHq4cOaY7pH72F/muRz0wd6T&#xA;7f8AIvNn2X9Mve9B7N8p/wCb+ljPlDWhpGuQ3EjUtpP3Vz/qP3/2LAHMzVYfEgR1dv2npPHwmI+o&#xA;bj3vZwa7jpnNPAN4q8489ajLpvnKwvot3ggjYr0qvqSBl/2S1GbvRQ48BietvV9j4Bl0k4HrI/cH&#xA;oNndwXlrFdW7c4ZlDo3sf45p5wMZEHmHl8uKWORjLmHmH5heX5LHVG1CJD9TvW5MwGyyndgf9b7Q&#xA;+nwzd6DUCcOE8w9h2JrRkx+GT6ofd+zk9F8vwNBoWnxMCrpbxB1PUNwFR9+ajUy4skj5vK62fFmm&#xA;f6R+9iPnnUYl816JETtaPHNIajbnKux+iOubLQQ/dS8/1O97IwE6bKf5wI+z9rPs0zzLxvz0FHmu&#xA;/C9OSH6TEpOdLpP7qPue87HP+DQ+P3lI0581CV5k/Dx619qZkOyNVu9T8j+VJNNjOoX4J1CZaKjb&#xA;mJD2/wBY9/uzR63Vcfpj9P3vGdr9pDKfDh9A+0/qTnXtftNHtRJIDLcynjbWqbvI52AA328T/HMb&#xA;T6c5D5dS4Gj0Us8qG0RzPQBDeXdHu4pJdW1Rg+rXgHJR9mGPqIU+Xf8AzJnqcwPoh9A+3zbddqok&#xA;DFi2xR/2R/nH8fqT3MR1zx3zrrq6vrTtC3K0th6VuR0ah+J/9kfwpnR6PB4cKPMvedk6PwMO/wBU&#xA;tz+r8dUgzLdm7FXrP5C+WzNqF35gmT93aqba0J6eq4rIw91Tb/ZZvuw9PcjkPTYfj8c3ifbLXcMI&#xA;4Ad5eo+4cvmfue250z547FXnn50eUjq/l4anbJyvtK5SEDq1uf7wf7GnL7/HNR2xpfEx8Q+qP3PU&#xA;+yvaXgZ/DkfRk2/zunz5fJ4TpetanpUxlsJ2hZtnAoVan8ymoOcblwxmKkLfSNRpceYVMWj9Z86a&#xA;5q1t9VuJEjtzTnHEvHnTpyJJP0dMqxaTHA2Bu4ul7Kw4JcURcvPokeZTsntvlnVE1PRLW6DcpOAS&#xA;fxEiCj1+Z3+WczqsRhkIfPO0NOcOaUel7e7o8/8AzORF8xRlaVa2QvTx5uN/oAzb9nH918Xp/Z8k&#xA;4D/WP3BX8ttquoQSz6RcpHqgjEN/azfYmjA4xzDb7S9D7796EagwgRxj03se5r14xYpCOWJOO7iR&#xA;/Cesfd+OmxhJ5cn8v6Np2p8RLeaZMZrxY/2opSA4BP8AKtPxykaoZZyh/DIUHFjro6nLPHyhkjUb&#xA;7xyQ3nLztpep6OLGw5s8zK0xdeIVVPKnXryA9slo9FLHPik29ldk5MOXjnW3JEeSPOel2ukLYalN&#xA;6ElsSInYMwZGPLqAd1Jp8qZXrdHKU+KIu2rtbsrJPLx4xYlz97H/AD1r1tq+rI1o5e1t4xGjEEBm&#xA;JJZgDv4D6MzNFgOOFHmXadj6OWDEeP6pG2OZmO2ej+QvOEUkEekX8gSeOiWkrHZ17IT/ADDoPHp1&#xA;66bXaQ3xx+LyfbPZhEjlgNj9Q7vNnWap5x5F+YV/Fd+ZJRGQy2qLAWHQstWb7mYjOi0MDHELe47E&#xA;wmGnF/xG0T5H83/oqX6het/uPlaqv19Jz3/1T3+/xyvW6TxBxR+ofa1dr9meMOOH1j7f2vT3S2uo&#xA;OLqk9vKAaEB0YdQd6g+OaMExPcXjwZQltYkPgUNrOsWWk2L3d04CqP3cdRyduyqPHLMOGWSVBt0u&#xA;lnnmIx/seK6pqNxqV/Pe3BrLO3IgdAOgUewG2dLjxiEREdH0HT4I4oCEeQZvZ/mikemqlzavLqCK&#xA;FDAgRuQKcmPVT7AZrJ9mXKwfS87l9niclxkBA/MMKI1HWNSdkRri8unLlUHUsan5Afhmy9OOPdEP&#xA;QXjwYxZ4YRD0ryl5Gt9K43l7xn1ClVHVIv8AV8W9/uzS6vXGfpjtH73ku0u15ZvRDaH2n9nknOr6&#xA;ubRo7W1i+tancA/V7YGgoOskjfsoPx6DMbDh4tyaiOZcDTaXjuUjw448z+gd5Q2j+XGgu21TU5vr&#xA;uryCnq0pHEv8kS9h7/1OWZtTY4IDhh9/vbtVruKPh4xwYh06nzKeZiOuYF5885RpFJpGnPylf4bu&#xA;dTso7xqe5P7Xh069NtodH/HL4PS9j9lkkZcg2/hH6f1fi+d5uHqnYqrWNlc317BZWqGS5uHWKFB3&#xA;ZjQZKEDKQiOZa82WOOBnI1GIsvqvytoFvoGgWelQUIt0AlkH7cjfFI/0sTnd6bAMWMQHR8X7R1st&#xA;TnllP8R+Q6D5Jrl7hOxVzKrKVYAqRQg7gg4qDT5o/M7yY3lnzA6wKf0Ze1msm7KK/FF80J+6mcX2&#xA;lo/BybfSeX6n1zsDtX83g3/vIbS/X8fvtiGa93rsVRenavqemuzWNy8Bf7YU/CadKqdjlc8UZ/UL&#xA;aM+lx5RU4gqN3eXV5cPcXUrTTvu0jmpPbJRiIihsGeLFHHHhiKAVtJ1W70q/ivbVqSRndT9llPVW&#xA;HgcjlxicTEtep00c0DCXIvZdG1ex1rTluYKMjgrNC1CVb9pGH+dRnN5sMsUqLwWq0s9Pk4ZcxyP6&#xA;WOan+WOmXEjyWVw9oW3EZAkjB8AKqwH05m4+05AVIW7XT+0GSIqYEvsLHL78tvMNvVoPSu0HT024&#xA;tT5Px/A5mQ7RxHns7bD29gl9Vx9/7Egu9I1SzJF1aTQ06l0YD76UzMhkjLkQXZ4tTjyfTIH4oTJt&#xA;7sVTOPzL5hS3+rJqE4iOwXmSQOlA32gPYHKTp8ZN8Itw5aDAZcRhG/cgls7xmosEjMewRif1Zc5B&#xA;ywHUKqaPqz/Ysrhqmm0Tnf6BlcssRzIYHVYhzlH5hN9NsvPlqgSyivYI96RkOib9fhegyicsEt5G&#xA;J+TgZ8uimbmYE/D9CpN5R876jKJbuGSVwKCSeZCQOtBVicjHV4I7AgfBjHtPR4hUSB7gf1IiH8sf&#xA;MDn95JbxDvV2J/4VTkJdpYh3lql7QYByEj8P2pjbflS3IG51Ace6xx7/APBM38Mpl2oOkXFye0f8&#xA;2HzLMNF8vaXo0JjsoqO395M28jfNv4dM12fUTyH1Oi1etyZzcz8OiLvL21srd7m6lWGCMVZ2NB/a&#xA;fbK4QMjQFloxYpZJCMRZLzux86aevnS51ObmLC4iFvG7Alo1Xia8RU8Syk0Hjm4no5eAID6hu9Tm&#xA;7KmdJHGK44m/fz/Wyubz55WijLi99QgbIiOWPsKqB95zAjoMpPJ0sOxtSTXDXxDDPMf5h32oK9tp&#xA;4aztG2Z6/vnHuR9kew+/Nlp9BGG8ty7/AEPYkMXqyeqX2D9f42Yjmwd67FXYq9n/ACR8jtEn+KL+&#xA;OjyAppkbDcKdnm/2X2V9q+2dH2Noq/ey+H63gPa3tez+WgeX1/oj+kvX86F4V2KuxV2KpJ5x8q2X&#xA;mbQ5tNuaI5+O1npUxSr9lvl2PtmNq9LHNAxPw97sey+0Z6TMMkeXUd4/H2vl/V9Jv9J1GfTr+IxX&#xA;VsxSRD+BB7gjcHwziMuKWORjLmH2HTamGfGMkDcZITK292KuxV2Ko/Rdcv8AR7wXNm9D0kiapRx4&#xA;MMqzYY5I1JxdXpIZ4cMx+sPW/L3mbTtbt+du3C4UVmtmPxp7/wCUvvnP6jTSxHfl3vEa3QZNPKpf&#xA;T0KN1CxN5AYluJrZuqywNxYfrByrFk4DdA+9x8Gbw5XQl5FjVzo/nyzYtp+rLeRj/dU6qHPtVgw/&#xA;4YZnxz6ef1R4fx5fqdvj1WiybZMfAfL8foUr2+8zWfl5b27023k1H6xwdPSDgQcT8RCMf2u9cljj&#xA;jlk4YyIjXf1Z4sOnyZ+CM5DHw99b/HyS/wAv+d7y71e3sLnT7ZUncIfRjZGUnueRbpluo0QEDLil&#xA;Y7y5Ot7JhDEZxnLYdSs1z8wdbstXu7S3SD0beVo0qjE0U03+LHF2fjlAE3uGWk7Fw5MUZy4rkL5/&#xA;sTTQfN2qX/l/Vr2VY/rNkhaIIpC/YJFRU13GUZ9HCE4AcpFw9Z2Zjx58cBfDPn82MH8xfNLsAkkY&#xA;J2CrEpr99czxoMPd9pdv/IemHMH5st1u683PoOlvpyv9enVWvDGqgglK0IYUXc5r8EMPHPiqhydJ&#xA;pMelGfIMlcA+n5oPSdB89zXcFxqOpPbwxurvD6hZmCkEqVT4KEe+WZtRgESIxBPub9TrNFGJjjhx&#xA;EjnX692XHS7Jr/68yF7kAKrMzFVp/KpPEH5DNd40uHgv0ujGomIcAPp/HXmi8qaWNeYPPWk6UGih&#xA;YXl6NvRjPwqf8t9wPkN8ztPoZz3Owdtoux8ubc+mHef0B5prWv6nrNx617LyC19OFdo0B/lX+J3z&#xA;dYcEcYqIeu0mix4I1AfHqUuy5y3Yq7FXYq7FWb/lj+Xs3mfUfrV2pTRbRh9Yfceqw39JD/xI9h8x&#xA;mz7N0Bzys/QPt8nne3+2xo8fDH+9ly8vM/ofRsUUcUSRRKEijUKiKKKqqKAADsM7AAAUHymUjI2d&#xA;yV2FDsVdirsVdirB/wAzfy7h80WH1q0Cx61aqfQc7CVBU+kx+f2T2Ptms7S7PGeNj6x9vk9F2B22&#xA;dHPhnvilz8vMfpfOtxbz208lvcRtFPExSWJwVZWU0IIPfOPlEg0eb6pCcZxEomwVPAzdirsVdiqp&#xA;a3VxazpcW0jRTRmqSIaEZGURIUeTDJjjOJjIWCzzQ/zOAVYdYiJI2+tQjr7un8V+7NXn7N6wPwea&#xA;1fs/1xH4H9B/X82Zafruj6iB9Su45mIr6Yaj090NGH3ZrcmnnDmHQ59HlxfXEj7vnyR+UuMtMcZc&#xA;OVBdejUFR9OGyniNUhbjRtIuZTLcWNvNKeskkSMx+kgnJxzTAoSPzboarLAVGUgPIlVtbGytEZLS&#xA;3it0Y1ZYkVAT0qQoGCWSUuZJYZM05m5Ey95tUjhhiFI41Qf5IA/VkTInmWMpk8za/AxU57i3t4jL&#xA;cSpDEv2pJGCqPmTQZKMDLYC2UISkaiLPkxnVfzF0Gz5JbFr6YbUj+GOo8Xb/AI1BzOxdnZJc/S7f&#xA;Tdh58m8vQPPn8v10wjWvPGu6pyj9X6ratt6EPw1H+U32j79vbNnh0ePH0svRaTsjDh3ril3n9TH8&#xA;y3aOxV2KuxV2KuxVmf5eflvqHmm6W4mDW+ixNSe56FyOscVep8T0H4ZsdB2fLObO0O/9ToO2+3ce&#xA;jjwj1ZTyHd5n8bvovTtOstNsobGxhWC1gXhFEnQD+JPc987DHjjCIjEUA+VZ888szOZuR5lEZNqd&#xA;irsVdirsVdirsVYH+ZH5Y2nmaJr+x42+txrQOdknA6LJ70+y30Hbpqu0OzRmHFHaf3vS9he0EtIe&#xA;Cfqwn5x936Q+fL/T73T7yWzvYXt7qFuMsMgowP8An0OclPHKB4ZCiH0/DmhlgJwPFE9VDItrsVdi&#xA;rsVdirsVTSy80+YrOnoX8wUCgV29RQPZZOQyiemxy5gOFl7OwZPqgPu+5Obf8zfMMahZEt56dWZG&#xA;DH/gWUfhmNLs3GeVhwJ9gYDyMh8f1hHxfmtcAD1dORjTcrKVFfpVsrPZce8uNL2cj0mfl+1c35ry&#xA;U+HTAD4mYn/jQY/yXHvKB7OD+f8A7H9qDm/NLWmJ9K1tkXsGDsfvDL+rJx7MxjmS3x9nsPWUvs/U&#xA;ll35780XPIG8MSN+zEqpT5MBy/HLo6LFHo5mPsfTQ/hv37/sSW5u7q6k9S5meeTpzkYu33sTmTGI&#xA;HJ2GPHGAqIAHkpZJm7FXYq7FXYq7FW0R3dURSzsQFUCpJOwAAxAtBIAsvVfIX5L3N4Y9R8yq1vab&#xA;NHp26yyf8ZT1Rfb7Xyze6Hscy9WXYd3X49zxfbPtVGF49P6pfzug93f93ve2W1rb2tvHb20SwwRK&#xA;FjiQBVVR2AGdLGIiKGwfPsmSU5GUjcj1VMkwdirsVdirsVdirsVdirsVYz508g6L5qteN0voX0Yp&#xA;b30YHNf8lv50r2P0UzC1mhhnG+0u92/ZXbObRy9O8DzieX7D5vn3zX5K17yxd+jqMNYHNILyOrQy&#xA;fJux/wAk75yWq0eTAakNu/o+n9m9rYNZG8Z36xPMfjvSHMV2bsVdirsVdirsVdirsVdirsVdirsV&#xA;dirsVdirsVdirLPKf5Y+Z/MZWWKH6nYNv9duAVUj/itacn+jb3zP0vZuXNuBUe8uj7S7f02l2J4p&#xA;/wA2P6e77/J7d5P/AC08ueWQs0Mf1vUQN76cAsD/AMVr0T6N/fOm0nZ2PDuN5d5fPe0+3tRq9ieH&#xA;H/NH6e/7vJlmZ7pHYq7FXYq7FXYq7FXYq7FXYq7FXYqo3tjZ31rJa3kCXFtKKSQyqGUj3ByM4RkK&#xA;kLDZizTxyEoExkOoeReb/wAiql7vyxLTudOnb8IpT+p/+Czn9X2J1xfI/oP6/m9x2Z7X8o6kf5w/&#xA;SP1fJ5Nqek6npd01pqNtJa3C9Y5VKmniK9R7jNBkxSgakKL22n1OPNHixyEo+SFyDe7FXYq7FXYq&#xA;7FXYq7FXYq7FXYq7FV8MM08qwwxtLK5okaAsxPgANzhAJNBjKYiLJoM78u/kv5u1XjJeoulWp6tc&#xA;by09oRvX/WK5tNP2PmnvL0jz5/J5vXe1Wlw7Q/eS8uX+m/Vb1Xyx+U/lLQikxg/SF6u/1i6o4B8U&#xA;j+wvtsT75vdN2Xhxb1xS83i+0PaTVana+CHdH9J5/o8mZ5snQOxV2KuxV2KuxV2KuxV2KuxV2Kux&#xA;V2KuxV2KuxVBatomkaxbG11O0iu4OyyqCVJ7qeqn3GVZcMMgqQsORptXlwS4scjE+X43eZeYvyDs&#xA;Zi02gXptWO4tbmrx/ISD41HzDZpdR2HE74zXkfx+t6/Q+2U47Z48XnHY/Ll9zzbXfy7846KSbzTZ&#xA;HhH/AB8QD1o6DuSleP8AsqZps/Z+bHzjt5bvWaPtvSaj6Ji+47H7efwY5mG7Z2KuxV2KuxV2KuxV&#xA;GWGi6xqLBbCxuLsn/fETyf8AEQcsx4Zz+kE+4OPm1eLF9cox95AZZpX5M+eb8gy20dhGf27qQA/8&#xA;BH6j/eMz8XZGeXMcPvdJqfanRY+UjM/0R+k0Gd6H+Qei2/GTWL2W9cbmGEejH8ific/QVzaYew4D&#xA;6zxfY85q/bLNLbFEQ8zuf1fe9B0by3oOixenpVjDaAijNGo5sB/M5q7fSc2+HT48YqAAeX1Wuzag&#xA;3lmZfd8uQTLLnEdirsVdirsVdirsVdirsVdirsVdirsVdirsVdirsVdirsVdirsVYd5t/wCVW8n/&#xA;AMQ/o/6xvz6fWPp9L97mu1X5X/KcN/b9m7vuzf5S/wAh4nD/ALH7fS8p1v8A5Uryb6h+la/s/VuP&#xA;p/T9Z+OmaHN+S/h4/h+17TSfyv8Ax+F/nXf+x2YdJ+g/Ub0/rPp1PDl6fLjXatO+a88HS3fR8at+&#xA;G/iq2P8Ahn6wv17679W/a9D0uf0ctsMPCv1cVeVMMv5jh9HBxed19jLLH/lSXw+t+mOhr6/p+Pf0&#xA;f4ZsIfkuvH8a/Q6TN/LHTwfhf++ZRpn/AEL9UcOHqf8AL19c/wCN/gzNx/yf/bxOn1H8udbr+jwf&#xA;o3Zpov8Ayq+q/on9EepUU9P0PVr26/Hmyw/lf4OD7Hn9V/KP+V8avPir9TKl48Rwpxp8NOlO1Mzw&#xA;6Y+beKHYq7FXYq7FXYq7FXYq7FXYq7FXYq7FX//Z</xmpGImg:image>
               </rdf:li>
            </rdf:Alt>
         </xmp:Thumbnails>
      </rdf:Description>
      <rdf:Description rdf:about=""
            xmlns:xmpTPg="http://ns.adobe.com/xap/1.0/t/pg/"
            xmlns:stDim="http://ns.adobe.com/xap/1.0/sType/Dimensions#"
            xmlns:xmpG="http://ns.adobe.com/xap/1.0/g/">
         <xmpTPg:MaxPageSize rdf:parseType="Resource">
            <stDim:w>800.000000</stDim:w>
            <stDim:h>761.000000</stDim:h>
            <stDim:unit>Pixels</stDim:unit>
         </xmpTPg:MaxPageSize>
         <xmpTPg:NPages>1</xmpTPg:NPages>
         <xmpTPg:HasVisibleTransparency>False</xmpTPg:HasVisibleTransparency>
         <xmpTPg:HasVisibleOverprint>False</xmpTPg:HasVisibleOverprint>
         <xmpTPg:PlateNames>
            <rdf:Seq>
               <rdf:li>Cyan</rdf:li>
               <rdf:li>Magenta</rdf:li>
               <rdf:li>Yellow</rdf:li>
            </rdf:Seq>
         </xmpTPg:PlateNames>
         <xmpTPg:SwatchGroups>
            <rdf:Seq>
               <rdf:li rdf:parseType="Resource">
                  <xmpG:groupName>Default Swatch Group</xmpG:groupName>
                  <xmpG:groupType>0</xmpG:groupType>
               </rdf:li>
            </rdf:Seq>
         </xmpTPg:SwatchGroups>
      </rdf:Description>
      <rdf:Description rdf:about=""
            xmlns:dc="http://purl.org/dc/elements/1.1/">
         <dc:format>image/svg+xml</dc:format>
      </rdf:Description>
   </rdf:RDF>
</x:xmpmeta>
                                                                                                    
                                                                                                    
                                                                                                    
                                                                                                    
                                                                                                    
                                                                                                    
                                                                                                    
                                                                                                    
                                                                                                    
                                                                                                    
                                                                                                    
                                                                                                    
                                                                                                    
                                                                                                    
                                                                                                    
                                                                                                    
                                                                                                    
                                                                                                    
                                                                                                    
                                                                                                    
                           
<?xpacket end="w"?>
	</metadata>
<g>
	<path fill-rule="evenodd" clip-rule="evenodd" fill="#FE3300" d="M801,303c0,19,0,38,0,57c-1.646,0.803-0.902,2.335-0.976,3.531
		c-2.626,43.398-8.964,86.182-19.948,128.315c-21.73,83.356-69.51,146.934-143.814,190.411
		c-37.784,22.108-78.087,38.695-119.456,52.756c-41.649,14.156-84.808,20.292-128.418,24.093
		c-7.149,0.623-14.412,0.814-21.388,2.894c-12.667,0-25.333,0-38,0c-0.245-0.747-0.843-0.893-1.534-0.963
		c-26.951-2.732-52.521-10.554-77.847-19.921c-48.427-17.911-92.168-43.381-130.31-78.239
		c-41.851-38.25-72.373-84.291-93.439-136.769c-9.905-24.674-18.951-49.587-22.52-76.145C2.679,444.966,3.116,439.774,1,435
		c0-18.333,0-36.667,0-55c1.274-0.455,0.893-1.606,1.043-2.521c1.166-7.048,2.075-14.149,3.52-21.14
		c5.365-25.954,15.099-50.503,24.434-75.18c26.129-69.07,66.577-128.378,122.925-176.094
		C226.572,42.699,313.51,12.523,408.459,2.806C412.971,2.344,417.66,2.856,422,1c19,0,38,0,57,0
		c4.319,1.867,8.985,1.46,13.484,1.826c25.081,2.044,49.812,6.015,73.797,13.725c51.609,16.591,96.736,44.352,136.783,80.562
		c56.906,51.455,91.018,114.413,96.302,191.865C799.684,293.631,799.032,298.501,801,303z M361.829,163.369
		c-6.282,1.202-12.613,2.194-18.838,3.643c-44.613,10.379-83.515,30.882-114.72,64.97c-19.896,21.733-34.183,47.054-47.434,73.132
		c-17.497,34.435-26.783,70.812-28.218,109.399c-0.678,18.227,0.402,36.336,2.331,54.362c5.723,53.488,23.873,101.286,65.422,137.83
		c17.695,15.564,35.949,30.325,58.826,37.881c23.319,7.701,47.177,13.601,71.511,16.204c28.573,3.056,57.199,1.268,85.569-3.926
		c52.795-9.663,99.215-33.102,141.749-65.059c2.16-1.622,4.191-3.236,3.883-6.461c-0.516-5.408,2.046-9.612,5.594-13.39
		c6.062-6.451,12.956-11.993,19.447-17.976c19.172-17.67,38.145-35.489,46.174-61.584c0.965-3.139,0.685-4.423-2.468-5.495
		c-9.361-3.184-15.843-9.477-19.521-18.719c-8.669-21.786-9.453-44.506-7.594-67.412c0.561-6.902,3.308-13.809,10.787-16.103
		c7.538-2.313,12.585,2.948,17.093,7.919c7.795,8.595,11.281,19.119,12.525,30.456c0.787,7.171,1.339,14.367,1.996,21.553
		c1.509-4.789,1.126-9.537,0.685-14.257c-3.157-33.793-11.217-66.633-19.726-99.352c-9.344-35.934-26.707-67.836-50.816-95.904
		c-30.033-34.966-69.194-54.454-113.336-65.105c-25.008-6.035-50.58-5.679-76.013-6.693c-5.874-0.234-10.605-1.573-14.563-5.962
		c-16.107-17.863-37.345-23.407-60.246-24.856c-0.92-0.059-2.06-0.337-2.597,1.74c21.423,5.567,44.527,7.87,60.634,28.152
		c-4.659,0-8.309-0.379-11.848,0.089c-5.303,0.702-9.365-0.866-13.806-3.94c-16.327-11.303-34.324-14.828-53.692-9.396
		c-2.674,0.75-5.534,1.641-7.565,5.534C324.534,148.001,343.869,150.585,361.829,163.369z M608.579,595.278
		c7.528-0.091,14.347-2.111,22.761-6.676c30.914-16.77,50.605-42.417,60.682-75.923c6.679-22.21,10.418-45.083,15.936-67.552
		c4.366-17.781,10.389-35.149,13.483-53.236c1.542-9.013-0.494-17.306-7.104-23.952c-6.946-6.986-15.756-6.735-22.393,0.516
		c-3.877,4.236-6.562,9.221-8.145,14.745c-3.718,12.972-6.914,26.078-8.871,39.433c-1.303,8.886-1.877,17.878-3.141,26.771
		c-0.674,4.738-3.734,6.809-8.043,6.355c-4.373-0.46-4.475-3.879-4.718-7.035c-0.447-5.811-0.603-11.646-1.11-17.449
		c-1.068-12.217-2.855-24.253-11.442-33.915c-2.722-3.063-5.505-7.374-10.135-6.004c-4.923,1.458-5.846,6.749-6.144,11.132
		c-1.454,21.426-0.185,42.613,6.914,63.133c2.745,7.936,8.322,13.077,15.912,16.239c1.688,0.703,3.428,1.288,5.16,1.88
		c3.524,1.202,4.521,3.703,3.563,7.091c-0.587,2.079-1.289,4.14-2.113,6.136c-12.296,29.782-31.776,53.679-58.668,71.488
		c-1.388,0.919-2.864,1.731-4.146,2.781c-7.246,5.932-7.106,15.893,0.284,21.445C600.523,595.251,604.563,595.249,608.579,595.278z
		 M44.89,476.005c-0.997,15.196,5.731,41.449,11.891,63.624c3.119,11.227,11.383,16.938,22.287,18.999
		c10.886,2.058,21.021-8.196,19.051-19.008c-1.193-6.551-2.739-13.037-3.981-19.58c-1.043-5.492-0.656-5.821,4.705-5.592
		c4.827,0.207,9.678,0.659,14.481,0.372c4.218-0.252,5.73,1.361,6.572,5.352c2.784,13.193,5.933,26.312,9.025,39.438
		c1.154,4.902,3.238,9.471,5.936,13.703c3.575,5.609,12.139,8.651,18.54,6.792c4.292-1.248,6.363-5.463,6.275-12.848
		c-0.014-1.163-0.18-2.324-0.225-3.488c-0.467-11.971-5.157-23.039-7.377-34.626c-5.484-28.617-10.614-57.302-16.116-85.916
		c-2.072-10.775-4.041-21.698-10.204-31.138c-2.43-3.722-5.593-7.023-10.629-5.95c-5.13,1.094-6.374,5.484-6.938,9.908
		c-0.95,7.445-1.134,14.913-0.668,22.438c0.741,11.992,2.237,23.87,4.424,35.671c0.761,4.108-0.001,6.788-5.034,6.911
		c-3.806,0.093-7.62,0.768-11.385,1.438c-6.575,1.171-6.447,1.232-7.631-5.314c-2.074-11.468-3.806-23.075-9.172-33.609
		c-3.362-6.599-8.936-10.482-16.51-10.07c-7.605,0.415-11.186,5.771-13.282,12.41C45.831,455.715,44.835,465.79,44.89,476.005z"/>
	<path fill-rule="evenodd" clip-rule="evenodd" fill="#FED31A" d="M361.829,163.369c-17.959-12.784-37.294-15.368-58.774-8.725
		c2.032-3.894,4.892-4.784,7.565-5.534c19.369-5.433,37.366-1.907,53.692,9.396c4.441,3.074,8.503,4.643,13.806,3.94
		c3.539-0.468,7.189-0.089,11.848-0.089c-16.106-20.282-39.21-22.585-60.634-28.152c0.537-2.077,1.677-1.799,2.597-1.74
		c22.9,1.449,44.139,6.993,60.246,24.856c3.958,4.389,8.689,5.728,14.563,5.962c25.433,1.015,51.005,0.658,76.013,6.693
		c44.142,10.651,83.303,30.14,113.336,65.105c24.109,28.068,41.473,59.971,50.816,95.904c8.509,32.719,16.568,65.559,19.726,99.352
		c0.441,4.72,0.824,9.468-0.685,14.257c-0.657-7.186-1.209-14.382-1.996-21.553c-1.244-11.337-4.73-21.861-12.525-30.456
		c-4.508-4.971-9.555-10.231-17.093-7.919c-7.479,2.294-10.227,9.2-10.787,16.103c-1.859,22.906-1.075,45.626,7.594,67.412
		c3.679,9.242,10.16,15.535,19.521,18.719c3.152,1.072,3.433,2.356,2.468,5.495c-8.029,26.095-27.002,43.914-46.174,61.584
		c-6.491,5.982-13.386,11.524-19.447,17.976c-3.548,3.777-6.109,7.981-5.594,13.39c0.309,3.225-1.723,4.839-3.883,6.461
		c-42.534,31.957-88.954,55.396-141.749,65.059c-28.37,5.193-56.996,6.981-85.569,3.926c-24.334-2.604-48.192-8.503-71.511-16.204
		c-22.877-7.556-41.131-22.316-58.826-37.881c-41.549-36.544-59.699-84.342-65.422-137.83c-1.929-18.026-3.009-36.136-2.331-54.362
		c1.435-38.588,10.721-74.965,28.218-109.399c13.25-26.078,27.537-51.398,47.434-73.132c31.205-34.088,70.107-54.591,114.72-64.97
		C349.216,165.563,355.547,164.571,361.829,163.369z M210.374,548.466c1.323,3.018,2.125,4.608,2.731,6.271
		c2.118,5.803,4.895,11.291,7.615,16.826c3.789,7.708,9.707,12.504,17.979,14.567c11.954,2.981,23.961,5.775,35.829,9.067
		c18.766,5.204,37.74,7.962,57.268,6.815c14.795-0.869,29.614-1.388,44.428-1.857c42.81-1.357,85.455-4.745,127.91-10.38
		c9.833-1.306,19.904-1.842,28.592-7.838c16.62-11.473,32.795-23.486,46.848-38.071c27.357-28.394,36.794-61.968,27.43-100.258
		c-11.081-45.313-34.897-82.357-72.79-110.229c-10.507-7.729-21.519-11.727-34.508-12.351c-40.116-1.926-79.899,0.121-119.322,8.047
		c-45.277,9.102-88.96,22.917-130.338,43.681c-6.004,3.014-10.756,7.053-14.336,12.729c-6.053,9.598-11.571,19.491-16.257,29.805
		c-1.583,3.483-3.622,4.701-7.221,4.575c-5.656-0.199-11.254-0.071-16.759,1.888c-11.942,4.251-19.512,12.688-24.753,23.925
		c-5.579,11.961-6.352,24.742-7.289,37.519c-1.968,26.817,6.167,50.933,20.173,73.355c2.749,4.401,6.381,8.159,11.312,10.285
		c6.336,2.732,11.248,0.365,12.964-6.335C208.768,557.036,209.346,553.49,210.374,548.466z M284.314,277.949
		c2.996,0,6.024,0.278,8.983-0.054c8.011-0.897,15.866-2.571,22.319-7.82c6.571-5.344,6.06-11.806-1.074-16.266
		c-2.849-1.781-5.967-2.938-9.208-3.783c-14.936-3.893-30.04-3.487-45.153-1.537c-7.094,0.915-14.24,2.013-20.68,5.411
		c-6.427,3.393-7.452,14.335-1.535,17.633c5.048,2.813,10.399,5.361,16.424,5.24C264.405,276.571,274.338,277.803,284.314,277.949z
		 M499.349,217.021c-14.208,0.743-28.101,6.977-41.404,14.834c-4.453,2.63-8.524,5.793-11.845,9.866
		c-3.596,4.413-2.026,8.689-0.039,13.085c1.83,4.046,5.147,4.767,9.098,4.487c8.693-0.614,17.102-2.651,25.425-5.068
		c10.466-3.04,20.567-6.923,28.826-14.348c4.729-4.253,8.874-9.195,6.327-16.093C513.207,216.936,506.79,217.329,499.349,217.021z
		 M389.691,295.66c-8.176,0.589-16.543,1.848-24.858,3.499c-2.352,0.468-2.987,1.565-1.977,3.854
		c2.284,5.177,4.152,10.497,4.818,16.17c0.202,1.715,0.952,2.716,2.985,2.307c7.487-1.508,14.991-2.925,22.489-4.374
		c1.39-0.269,2.675-0.595,2.126-2.524c-1.469-5.161-1.112-10.555-1.977-15.796C392.975,296.835,392.592,295.095,389.691,295.66z
		 M369.618,628.834c20.603-0.476,17.148,2.875,17.299-14.961c0.029-3.466-1.516-4.174-4.555-4.006
		c-4.637,0.257-9.296,0.095-13.937,0.302c-15.959,0.712-12.702-2.817-13.53,14.029c-0.008,0.165,0.018,0.334,0,0.498
		c-0.285,2.587,0.984,3.507,3.458,3.574C362.828,628.392,367.298,628.712,369.618,628.834z M307.837,339.112
		c7.405-2.418,14.831-4.777,22.201-7.297c1.744-0.597,1.12-2.146,0.632-3.397c-1.867-4.788-3.814-9.545-5.612-14.359
		c-0.862-2.311-2.016-3.217-4.451-1.956c-6.186,3.204-12.432,6.29-18.639,9.452c-1.72,0.877-3.226,1.973-2.205,4.263
		c1.686,3.782,3.393,7.556,5.156,11.302C305.445,338.237,306.4,338.892,307.837,339.112z M492.557,310.92
		c0.042-0.3,0.084-0.6,0.126-0.899c-0.841-0.393-1.662-0.837-2.526-1.171c-13.407-5.19-27.235-8.786-41.423-11.101
		c-11.87-1.936-11.71-2.004-13.145,9.66c-0.425,3.451,0.435,4.387,3.801,4.3c14.323-0.37,28.651-0.555,42.979-0.781
		C485.764,310.874,489.16,310.92,492.557,310.92z M423.25,608.207c-4.148,0.236-8.3,0.457-12.448,0.712
		c-14.932,0.92-13.621-2.213-12.955,15.063c0.11,2.863,1.286,3.733,4.083,3.376c5.77-0.736,11.586-1.107,17.355-1.85
		c9.102-1.173,9.092-1.25,10.119-10.368C430.212,607.969,430.212,607.969,423.25,608.207z M361.813,322.034
		c-0.169-0.345-0.27-0.671-0.463-0.928c-3.766-4.997-5.776-10.774-7.501-16.692c-0.647-2.219-2.418-2.676-4.368-2.115
		c-5.257,1.511-10.469,3.179-15.711,4.744c-2.373,0.709-2.711,2.082-1.57,4.118c2.697,4.815,4.635,9.918,5.504,15.379
		c0.286,1.798,0.937,2.786,2.907,2.274c6.419-1.666,12.845-3.31,19.254-5.012C360.758,323.565,361.886,323.369,361.813,322.034z
		 M414.63,295.181c-0.003-0.063-0.006-0.125-0.009-0.188c-3.779,0.202-8.783-0.983-11.008,0.98
		c-2.447,2.159,0.133,7.083,0.277,10.816c0.057,1.49,0.196,2.977,0.311,4.465c0.215,2.786,1.427,4.184,4.496,3.715
		c4.748-0.725,9.535-1.202,14.301-1.814c1.283-0.165,2.921-0.1,3.111-1.838c0.557-5.086,2.082-10.664-0.142-15.121
		c-1.327-2.66-6.45-0.652-9.847-1.009C415.629,295.136,415.127,295.181,414.63,295.181z M254.906,362.094
		c2.137-0.915,3.759-1.566,5.345-2.297c9.048-4.168,18.017-8.515,27.146-12.494c10.989-4.789,11.047-4.655,5.215-15.325
		c-0.159-0.291-0.345-0.572-0.471-0.878c-0.856-2.079-2.004-2.22-3.793-0.88c-11.872,8.891-22.721,18.903-32.838,29.724
		C255.23,360.243,255.249,360.821,254.906,362.094z M331.019,610.548c0-0.056,0-0.112,0.001-0.168c-2.816,0-5.649-0.189-8.442,0.063
		c-1.995,0.182-4.86-1.427-5.596,2.238c-1.116,5.561,0.263,10.23,4.004,10.976c7.133,1.421,14.377,2.292,21.585,3.329
		c1.557,0.224,2.772-0.008,3.238-2.069c2.323-10.279-0.085-13.644-10.325-14.09C333.994,610.762,332.507,610.643,331.019,610.548z
		 M466.287,604.878c-8.166,0.782-15.6,1.52-23.039,2.189c-1.844,0.166-3.461,0.591-3.156,2.837
		c0.537,3.961-1.618,8.276,1.496,11.855c0.273,0.314,1.291,0.126,1.914-0.025c9.035-2.197,18.03-4.524,26.863-7.465
		c3.987-1.327,2.591-4.555,2.644-7.104c0.067-3.264-2.694-2.063-4.46-2.267C467.566,604.785,466.561,604.878,466.287,604.878z
		 M264.987,606.803c2.904,1.164,5.607,2.263,8.321,3.331c9.919,3.904,20.142,6.865,30.398,9.713
		c2.822,0.783,5.293,0.374,5.153-3.167c-0.09-2.292,3.531-6.136-1.481-6.777c-12.197-1.561-24.207-4.533-36.546-4.953
		C268.978,604.887,266.825,604.376,264.987,606.803z M496.162,602.607c-4.327-0.729-7.511,0.039-10.707,0.465
		c-2.161,0.288-2.636,1.734-2.313,3.58c0.44,2.518,2.097,1.519,3.373,0.965C489.499,606.321,492.643,605.316,496.162,602.607z
		 M366.693,274.884c-0.55-2.19-1.696-4.108-4.102-4.211c-1.768-0.076-3.071,1.365-3.04,3.244c0.041,2.458,1.552,4.111,3.94,4.238
		C365.322,278.253,366.261,276.678,366.693,274.884z M378.646,267.983c-2.223,0.047-2.729,1.522-2.555,3.323
		c0.212,2.2,1.349,3.764,3.755,3.605c2-0.132,2.762-1.731,2.695-3.467C382.452,269.113,380.962,268.003,378.646,267.983z"/>
	<path fill-rule="evenodd" clip-rule="evenodd" fill="#FED31A" d="M608.578,595.281c-4.015-0.032-8.055-0.03-11.476-2.601
		c-7.391-5.553-7.53-15.514-0.284-21.445c1.282-1.05,2.759-1.862,4.146-2.781c26.892-17.81,46.372-41.706,58.668-71.488
		c0.824-1.996,1.526-4.057,2.113-6.136c0.957-3.388-0.039-5.889-3.563-7.091c-1.732-0.592-3.472-1.177-5.16-1.88
		c-7.59-3.162-13.167-8.304-15.912-16.239c-7.099-20.52-8.368-41.707-6.914-63.133c0.298-4.383,1.221-9.674,6.144-11.132
		c4.63-1.37,7.413,2.941,10.135,6.004c8.587,9.662,10.374,21.698,11.442,33.915c0.508,5.804,0.663,11.639,1.11,17.449
		c0.243,3.156,0.345,6.575,4.718,7.035c4.309,0.453,7.369-1.617,8.043-6.355c1.264-8.893,1.838-17.885,3.141-26.771
		c1.957-13.354,5.153-26.461,8.871-39.433c1.583-5.524,4.268-10.509,8.145-14.745c6.637-7.251,15.446-7.502,22.393-0.516
		c6.609,6.646,8.646,14.939,7.104,23.952c-3.095,18.087-9.117,35.455-13.483,53.236c-5.518,22.469-9.257,45.342-15.936,67.552
		c-10.076,33.506-29.768,59.153-60.682,75.923C622.926,593.167,616.107,595.188,608.578,595.281z"/>
	<path fill-rule="evenodd" clip-rule="evenodd" fill="#FED31A" d="M44.886,476.004c-0.051-10.214,0.945-20.289,4.037-30.082
		c2.097-6.639,5.677-11.995,13.282-12.41c7.575-0.412,13.148,3.472,16.51,10.07c5.367,10.534,7.099,22.142,9.172,33.609
		c1.184,6.547,1.056,6.485,7.631,5.314c3.765-0.67,7.579-1.345,11.385-1.438c5.033-0.123,5.795-2.803,5.034-6.911
		c-2.187-11.801-3.683-23.679-4.424-35.671c-0.465-7.525-0.282-14.993,0.668-22.438c0.564-4.424,1.808-8.814,6.938-9.908
		c5.036-1.073,8.199,2.229,10.629,5.95c6.163,9.439,8.132,20.362,10.204,31.138c5.502,28.614,10.632,57.299,16.116,85.916
		c2.22,11.587,6.91,22.655,7.377,34.626c0.045,1.164,0.211,2.325,0.225,3.488c0.088,7.385-1.982,11.6-6.275,12.848
		c-6.401,1.859-14.965-1.183-18.54-6.792c-2.697-4.232-4.781-8.801-5.936-13.703c-3.092-13.127-6.241-26.245-9.025-39.438
		c-0.842-3.99-2.354-5.604-6.572-5.352c-4.803,0.287-9.654-0.165-14.481-0.372c-5.361-0.229-5.748,0.1-4.705,5.592
		c1.243,6.543,2.789,13.029,3.981,19.58c1.969,10.812-8.165,21.065-19.051,19.008c-10.904-2.061-19.168-7.772-22.287-18.999
		C50.621,517.454,43.893,491.201,44.886,476.004z"/>
	<path fill-rule="evenodd" clip-rule="evenodd" fill="#FE3300" d="M210.374,548.466c-1.028,5.024-1.606,8.57-2.494,12.037
		c-1.716,6.7-6.627,9.067-12.964,6.335c-4.931-2.126-8.563-5.884-11.312-10.285c-14.006-22.423-22.141-46.538-20.173-73.355
		c0.938-12.776,1.71-25.558,7.289-37.519c5.241-11.236,12.811-19.674,24.753-23.925c5.505-1.959,11.103-2.087,16.759-1.888
		c3.599,0.126,5.638-1.092,7.221-4.575c4.686-10.313,10.204-20.207,16.257-29.805c3.581-5.677,8.333-9.716,14.336-12.729
		c41.378-20.764,85.061-34.579,130.338-43.681c39.423-7.926,79.206-9.973,119.322-8.047c12.989,0.624,24.001,4.622,34.508,12.351
		c37.893,27.871,61.709,64.915,72.79,110.229c9.364,38.29-0.072,71.864-27.43,100.258c-14.053,14.585-30.228,26.599-46.848,38.071
		c-8.688,5.996-18.759,6.532-28.592,7.838c-42.455,5.635-85.101,9.022-127.91,10.38c-14.814,0.47-29.633,0.988-44.428,1.857
		c-19.528,1.146-38.502-1.611-57.268-6.815c-11.868-3.292-23.875-6.086-35.829-9.067c-8.272-2.063-14.191-6.859-17.979-14.567
		c-2.72-5.535-5.498-11.023-7.615-16.826C212.498,553.074,211.697,551.483,210.374,548.466z M343.943,489.853
		c-0.336,0.105-0.672,0.21-1.008,0.315c-1.744-2.61-3.584-5.162-5.214-7.842c-8.655-14.229-17.04-28.627-25.942-42.697
		c-8.023-12.682-18.338-23.324-31.265-31.101c-10.056-6.05-17.107-3.992-21.623,6.795c-5.147,12.298-9.06,24.995-9.096,38.627
		c-0.042,16.003,0.458,31.989,1.481,47.942c1.021,15.938,1.564,31.949,4.708,47.684c1.114,5.575,2.827,10.926,5.914,15.813
		c3.48,5.509,8.593,5.494,14.104,4.713c4.604-0.652,6.851-3.784,8.257-7.729c0.723-2.026,1.219-4.158,1.588-6.282
		c2.507-14.425,2.195-28.801-0.374-43.221c-3.242-18.2-6.041-36.473-6.502-55.01c-0.072-2.917-0.059-5.834,3.819-6.477
		c3.733-0.618,6.435-0.236,8.165,4.106c6.663,16.726,11.979,33.909,17.942,50.871c5.694,16.196,11.56,32.34,20.964,46.859
		c5.922,9.145,12.662,17.628,22.333,23.169c15.011,8.601,28.111,2.548,31.215-14.367c0.359-1.958,0.51-3.96,0.669-5.949
		c1.82-22.767-1.304-45.212-4.553-67.631c-4.392-30.313-10.714-60.328-13.916-90.828c-1.042-9.928-1.659-19.926-3.736-29.719
		c-1.547-7.295-6.111-10.396-12.941-9.101c-6.18,1.171-8.398,4.105-8.925,11.89c-1.411,20.841,0.384,41.601,1.488,62.387
		C342.502,451.988,343.142,470.925,343.943,489.853z M486.977,510.972c-0.167-9.654,0.284-19.316-0.83-28.961
		c-1.177-10.183-6.758-17.149-15.922-20.616c-10.299-3.895-21.207-5.799-32.248-6.292c-6.479-0.29-12.506,4.224-13.552,9.615
		c-0.887,4.572,2.476,9.502,8.46,12.221c3.818,1.735,7.859,2.841,12.017,3.245c5.55,0.539,8.324,3.638,8.946,8.956
		c0.599,5.125,1.456,10.245,1.641,15.387c0.49,13.637,1.51,27.334-1.533,40.819c-0.745,3.305-1.09,7.984-4.637,8.826
		c-3.683,0.874-6.398-3.009-8.877-5.598c-7.605-7.942-11.457-17.914-14.275-28.264c-9.129-33.505-10.143-67.746-8.748-102.158
		c0.42-10.371,2.457-20.5,6.018-30.275c1.725-4.737,2.774-4.905,6.377-1.204c3.78,3.884,6.534,8.399,8.133,13.598
		c1.713,5.57,3.305,11.183,5.178,16.699c1.58,4.651,4.904,7.343,9.895,8.013c5.045,0.677,8.227-1.923,10.746-5.764
		c1.562-2.379,2.62-4.994,3.363-7.76c6.748-25.096-9.537-54.993-34.328-63.083c-3.979-1.298-7.829-1.217-11.747,0.108
		c-11.22,3.795-19.792,10.96-25.833,20.987c-9.103,15.109-12.227,32.005-12.996,49.259c-0.705,15.817,0.827,31.644,2.1,47.411
		c1.245,15.419,2.942,30.76,6.546,45.933c5.502,23.167,17.047,42.498,34.211,58.663c13.612,12.818,32.921,12.305,45.307-1.599
		c10.357-11.627,16.939-25.063,16.608-41.169C486.879,522.307,486.977,516.638,486.977,510.972z M482.789,409.92
		c-0.572,14.493,4.009,28.985,8.817,43.367c4.433,13.256,6.76,26.698,6.401,40.723c-0.35,13.651-0.148,27.328,1.007,40.955
		c0.66,7.78,0.891,15.718,4.842,22.78c5.292,9.46,15.273,10.271,22.103,1.899c3.52-4.314,4.983-9.297,5.059-14.824
		c0.248-18.125-3.35-35.76-6.673-53.436c-1.885-10.027-0.629-12.594,8.375-17.63c13.264-7.417,16.196-6.29,21.308,8.089
		c4.574,12.865,9.066,25.761,13.852,38.547c1.993,5.327,5.718,6.886,12.14,6.249c5.021-0.497,6.596-3.984,7.296-8.166
		c1.717-10.242,2.598-20.621,0.57-30.825c-3.022-15.219-5.687-31.38-19.273-41.02c-8.446-5.992-7.622-11.039-5.56-19.829
		c7.59-32.329-5.155-50.795-32.046-61.589c-20.165-8.095-43.784,6.843-46.874,26.824
		C483.262,397.657,482.647,403.256,482.789,409.92z M244.344,518.541c0.769-14.768-2.138-34.285-3.561-53.875
		c-0.699-9.617-4.823-18.342-10.916-25.912c-14.83-18.427-42.553-11.592-50.31,5.181c-8.903,19.25-10.949,39.17-8.896,59.513
		c1.88,18.624,9.359,35.672,19.907,51.215c1.464,2.157,3.225,5.171,6.073,4.489c3.242-0.775,2.424-4.39,2.448-6.892
		c0.108-11.163-0.004-22.328-0.021-33.493c-0.021-13.165,0.648-13.665,13.961-13.935c4.043-0.082,4.973,1.295,5.063,5.107
		c0.376,15.828,1.765,31.592,3.959,47.276c1.083,7.743,5.409,11.528,12.199,10.769c5.355-0.6,7.646-3.513,8.644-11.046
		C244.365,545.834,244.183,534.66,244.344,518.541z"/>
	<path fill-rule="evenodd" clip-rule="evenodd" fill="#FE3300" d="M284.314,277.949c-9.976-0.146-19.909-1.378-29.923-1.176
		c-6.024,0.121-11.376-2.428-16.424-5.24c-5.917-3.298-4.892-14.24,1.535-17.633c6.44-3.398,13.586-4.496,20.68-5.411
		c15.114-1.95,30.218-2.355,45.153,1.537c3.241,0.845,6.358,2.002,9.208,3.783c7.134,4.46,7.646,10.922,1.074,16.266
		c-6.454,5.249-14.308,6.923-22.319,7.82C290.338,278.228,287.31,277.949,284.314,277.949z"/>
	<path fill-rule="evenodd" clip-rule="evenodd" fill="#FE3300" d="M499.349,217.021c7.441,0.308,13.858-0.086,16.388,6.764
		c2.547,6.897-1.598,11.84-6.327,16.093c-8.259,7.425-18.36,11.308-28.826,14.348c-8.323,2.417-16.731,4.454-25.425,5.068
		c-3.95,0.279-7.268-0.441-9.098-4.487c-1.987-4.396-3.557-8.672,0.039-13.085c3.32-4.073,7.392-7.236,11.845-9.866
		C471.248,223.998,485.141,217.765,499.349,217.021z"/>
	<path fill-rule="evenodd" clip-rule="evenodd" fill="#FE3300" d="M389.691,295.66c2.9-0.565,3.283,1.175,3.606,3.136
		c0.865,5.241,0.508,10.635,1.977,15.796c0.549,1.93-0.736,2.256-2.126,2.524c-7.498,1.449-15.002,2.866-22.489,4.374
		c-2.033,0.409-2.783-0.592-2.985-2.307c-0.667-5.673-2.535-10.993-4.818-16.17c-1.01-2.289-0.375-3.387,1.977-3.854
		C373.148,297.508,381.516,296.249,389.691,295.66z"/>
	<path fill-rule="evenodd" clip-rule="evenodd" fill="#FE3300" d="M369.618,628.834c-2.32-0.122-6.79-0.442-11.265-0.563
		c-2.475-0.067-3.744-0.987-3.458-3.574c0.018-0.164-0.008-0.333,0-0.498c0.828-16.847-2.429-13.317,13.53-14.029
		c4.641-0.207,9.3-0.045,13.937-0.302c3.04-0.168,4.584,0.54,4.555,4.006C386.766,631.709,390.221,628.358,369.618,628.834z"/>
	<path fill-rule="evenodd" clip-rule="evenodd" fill="#FE3300" d="M307.837,339.112c-1.437-0.221-2.392-0.875-2.918-1.993
		c-1.763-3.746-3.47-7.52-5.156-11.302c-1.021-2.29,0.485-3.386,2.205-4.263c6.207-3.162,12.453-6.248,18.639-9.452
		c2.435-1.261,3.589-0.354,4.451,1.956c1.797,4.814,3.745,9.571,5.612,14.359c0.488,1.252,1.112,2.801-0.632,3.397
		C322.668,334.335,315.243,336.694,307.837,339.112z"/>
	<path fill-rule="evenodd" clip-rule="evenodd" fill="#FE3300" d="M492.557,310.92c-3.396,0-6.793-0.046-10.188,0.008
		c-14.327,0.227-28.655,0.411-42.979,0.781c-3.366,0.087-4.226-0.849-3.801-4.3c1.435-11.664,1.274-11.596,13.145-9.66
		c14.188,2.314,28.016,5.91,41.423,11.101c0.864,0.334,1.686,0.778,2.526,1.171C492.641,310.32,492.599,310.62,492.557,310.92z"/>
	<path fill-rule="evenodd" clip-rule="evenodd" fill="#FE3300" d="M423.25,608.203c6.962-0.234,6.962-0.234,6.154,6.938
		c-1.027,9.118-1.018,9.195-10.119,10.368c-5.77,0.742-11.586,1.113-17.355,1.85c-2.797,0.357-3.973-0.513-4.083-3.376
		c-0.666-17.276-1.977-14.144,12.955-15.063C414.95,608.664,419.102,608.443,423.25,608.203z"/>
	<path fill-rule="evenodd" clip-rule="evenodd" fill="#FE3300" d="M361.813,322.034c0.073,1.335-1.055,1.531-1.948,1.769
		c-6.41,1.702-12.835,3.346-19.254,5.012c-1.971,0.512-2.621-0.477-2.907-2.274c-0.869-5.461-2.807-10.563-5.504-15.379
		c-1.141-2.036-0.803-3.409,1.57-4.118c5.242-1.565,10.454-3.233,15.711-4.744c1.949-0.561,3.721-0.104,4.368,2.115
		c1.725,5.918,3.735,11.695,7.501,16.692C361.543,321.363,361.644,321.689,361.813,322.034z"/>
	<path fill-rule="evenodd" clip-rule="evenodd" fill="#FE3300" d="M414.63,295.181c0.497,0,0.999-0.045,1.491,0.007
		c3.396,0.356,8.52-1.651,9.847,1.009c2.224,4.457,0.698,10.035,0.142,15.121c-0.19,1.738-1.828,1.673-3.111,1.838
		c-4.766,0.612-9.553,1.09-14.301,1.814c-3.069,0.469-4.281-0.929-4.496-3.715c-0.114-1.488-0.254-2.975-0.311-4.465
		c-0.145-3.733-2.725-8.657-0.277-10.816c2.225-1.964,7.229-0.778,11.008-0.98C414.624,295.056,414.627,295.118,414.63,295.181z"/>
	<path fill-rule="evenodd" clip-rule="evenodd" fill="#FE3300" d="M254.906,362.094c0.342-1.272,0.324-1.851,0.604-2.15
		c10.118-10.82,20.966-20.833,32.838-29.724c1.789-1.34,2.937-1.199,3.793,0.88c0.125,0.306,0.312,0.587,0.471,0.878
		c5.833,10.67,5.774,10.536-5.215,15.325c-9.13,3.979-18.099,8.326-27.146,12.494C258.666,360.527,257.043,361.179,254.906,362.094z
		"/>
	<path fill-rule="evenodd" clip-rule="evenodd" fill="#FE3300" d="M331.019,610.548c1.488,0.095,2.976,0.214,4.465,0.279
		c10.24,0.446,12.648,3.811,10.325,14.09c-0.466,2.062-1.682,2.293-3.238,2.069c-7.208-1.037-14.452-1.908-21.585-3.329
		c-3.741-0.745-5.12-5.415-4.004-10.976c0.735-3.665,3.601-2.057,5.596-2.238c2.793-0.253,5.626-0.063,8.442-0.063
		C331.019,610.436,331.019,610.492,331.019,610.548z"/>
	<path fill-rule="evenodd" clip-rule="evenodd" fill="#FE3300" d="M466.287,604.878c0.273,0,1.279-0.093,2.262,0.021
		c1.766,0.203,4.527-0.997,4.46,2.267c-0.053,2.55,1.344,5.777-2.644,7.104c-8.833,2.94-17.828,5.268-26.863,7.465
		c-0.623,0.151-1.641,0.34-1.914,0.025c-3.114-3.579-0.959-7.895-1.496-11.855c-0.305-2.246,1.313-2.671,3.156-2.837
		C450.688,606.397,458.121,605.66,466.287,604.878z"/>
	<path fill-rule="evenodd" clip-rule="evenodd" fill="#FE3300" d="M264.987,606.803c1.838-2.427,3.99-1.916,5.846-1.854
		c12.339,0.42,24.349,3.393,36.546,4.953c5.012,0.642,1.391,4.485,1.481,6.777c0.14,3.541-2.331,3.95-5.153,3.167
		c-10.257-2.848-20.479-5.809-30.398-9.713C270.594,609.065,267.892,607.967,264.987,606.803z"/>
	<path fill-rule="evenodd" clip-rule="evenodd" fill="#FE3300" d="M496.162,602.607c-3.52,2.709-6.663,3.714-9.646,5.01
		c-1.276,0.554-2.933,1.553-3.373-0.965c-0.323-1.846,0.151-3.292,2.313-3.58C488.651,602.646,491.835,601.879,496.162,602.607z"/>
	<path fill-rule="evenodd" clip-rule="evenodd" fill="#FE3300" d="M366.693,274.884c-0.432,1.794-1.371,3.369-3.201,3.271
		c-2.389-0.127-3.899-1.78-3.94-4.238c-0.031-1.879,1.272-3.32,3.04-3.244C364.997,270.775,366.143,272.693,366.693,274.884z"/>
	<path fill-rule="evenodd" clip-rule="evenodd" fill="#FE3300" d="M378.653,267.98c2.309,0.022,3.799,1.133,3.889,3.465
		c0.067,1.735-0.695,3.335-2.695,3.467c-2.406,0.158-3.542-1.405-3.755-3.605C375.918,269.506,376.423,268.03,378.653,267.98z"/>
	<path fill-rule="evenodd" clip-rule="evenodd" fill="#FED31A" d="M343.943,489.853c-0.801-18.928-1.441-37.864-2.445-56.781
		c-1.104-20.786-2.898-41.546-1.488-62.387c0.527-7.784,2.745-10.719,8.925-11.89c6.83-1.295,11.394,1.806,12.941,9.101
		c2.078,9.793,2.694,19.791,3.736,29.719c3.202,30.5,9.523,60.516,13.916,90.828c3.249,22.419,6.373,44.864,4.553,67.631
		c-0.159,1.989-0.31,3.991-0.669,5.949c-3.104,16.915-16.204,22.968-31.215,14.367c-9.672-5.541-16.411-14.024-22.333-23.169
		c-9.404-14.52-15.27-30.663-20.964-46.859c-5.963-16.962-11.28-34.146-17.942-50.871c-1.73-4.343-4.432-4.725-8.165-4.106
		c-3.878,0.643-3.892,3.56-3.819,6.477c0.461,18.537,3.26,36.81,6.502,55.01c2.568,14.42,2.88,28.796,0.374,43.221
		c-0.369,2.124-0.866,4.256-1.588,6.282c-1.407,3.944-3.653,7.076-8.257,7.729c-5.512,0.781-10.624,0.796-14.104-4.713
		c-3.087-4.887-4.8-10.237-5.914-15.813c-3.144-15.734-3.687-31.746-4.708-47.684c-1.022-15.953-1.523-31.939-1.481-47.942
		c0.036-13.632,3.949-26.329,9.096-38.627c4.516-10.787,11.567-12.845,21.623-6.795c12.927,7.776,23.242,18.419,31.265,31.101
		c8.902,14.07,17.287,28.469,25.942,42.697c1.63,2.68,3.47,5.231,5.214,7.842C343.271,490.063,343.607,489.958,343.943,489.853z"/>
	<path fill-rule="evenodd" clip-rule="evenodd" fill="#FED31A" d="M486.977,510.972c0,5.666-0.098,11.335,0.019,16.998
		c0.331,16.105-6.251,29.542-16.608,41.169c-12.386,13.903-31.694,14.417-45.307,1.599c-17.164-16.165-28.709-35.496-34.211-58.663
		c-3.604-15.173-5.301-30.514-6.546-45.933c-1.273-15.768-2.805-31.594-2.1-47.411c0.769-17.254,3.894-34.149,12.996-49.259
		c6.041-10.027,14.613-17.192,25.833-20.987c3.918-1.325,7.769-1.406,11.747-0.108c24.791,8.09,41.076,37.987,34.328,63.083
		c-0.743,2.766-1.802,5.381-3.363,7.76c-2.52,3.841-5.701,6.44-10.746,5.764c-4.99-0.67-8.314-3.361-9.895-8.013
		c-1.873-5.517-3.465-11.129-5.178-16.699c-1.599-5.198-4.353-9.714-8.133-13.598c-3.603-3.701-4.652-3.533-6.377,1.204
		c-3.561,9.775-5.598,19.904-6.018,30.275c-1.395,34.412-0.381,68.653,8.748,102.158c2.818,10.35,6.67,20.321,14.275,28.264
		c2.479,2.589,5.194,6.472,8.877,5.598c3.547-0.842,3.892-5.521,4.637-8.826c3.043-13.485,2.023-27.183,1.533-40.819
		c-0.185-5.142-1.042-10.262-1.641-15.387c-0.622-5.318-3.396-8.417-8.946-8.956c-4.157-0.404-8.198-1.51-12.017-3.245
		c-5.984-2.719-9.347-7.648-8.46-12.221c1.046-5.392,7.073-9.905,13.552-9.615c11.041,0.493,21.949,2.397,32.248,6.292
		c9.164,3.467,14.745,10.434,15.922,20.616C487.261,491.655,486.81,501.317,486.977,510.972z"/>
	<path fill-rule="evenodd" clip-rule="evenodd" fill="#FED31A" d="M482.789,409.92c-0.142-6.664,0.473-12.263,1.343-17.885
		c3.09-19.981,26.709-34.919,46.874-26.824c26.891,10.794,39.636,29.26,32.046,61.589c-2.063,8.79-2.887,13.837,5.56,19.829
		c13.587,9.64,16.251,25.801,19.273,41.02c2.027,10.204,1.146,20.583-0.57,30.825c-0.7,4.182-2.275,7.669-7.296,8.166
		c-6.422,0.637-10.146-0.922-12.14-6.249c-4.785-12.786-9.277-25.682-13.852-38.547c-5.111-14.379-8.044-15.506-21.308-8.089
		c-9.004,5.036-10.26,7.603-8.375,17.63c3.323,17.676,6.921,35.311,6.673,53.436c-0.075,5.527-1.539,10.51-5.059,14.824
		c-6.829,8.372-16.811,7.561-22.103-1.899c-3.951-7.063-4.182-15-4.842-22.78c-1.155-13.627-1.356-27.304-1.007-40.955
		c0.358-14.024-1.969-27.467-6.401-40.723C486.798,438.905,482.217,424.413,482.789,409.92z M542.945,412.574
		c-0.382-6.414-1.783-13.743-5.127-20.546c-2.378-4.839-4.7-5.317-9.108-2.297c-5.044,3.455-7.769,8.569-9.72,14.136
		c-5.746,16.395-5.532,33.3-4.138,50.289c0.075,0.918-0.173,2.205,1.088,2.483c1.091,0.241,1.758-0.775,2.421-1.474
		c7.571-7.97,14.685-16.326,20.406-25.74C541.663,424.664,542.928,419.312,542.945,412.574z"/>
	<path fill-rule="evenodd" clip-rule="evenodd" fill="#FED31A" d="M244.344,518.541c-0.161,16.119,0.021,27.293-1.449,38.397
		c-0.997,7.533-3.289,10.446-8.644,11.046c-6.79,0.76-11.115-3.025-12.199-10.769c-2.195-15.685-3.583-31.448-3.959-47.276
		c-0.091-3.813-1.02-5.189-5.063-5.107c-13.313,0.27-13.981,0.77-13.961,13.935c0.018,11.165,0.129,22.33,0.021,33.493
		c-0.024,2.502,0.794,6.116-2.448,6.892c-2.849,0.682-4.609-2.332-6.073-4.489c-10.548-15.543-18.026-32.591-19.907-51.215
		c-2.054-20.343-0.007-40.263,8.896-59.513c7.757-16.772,35.479-23.607,50.31-5.181c6.093,7.57,10.217,16.295,10.916,25.912
		C242.206,484.256,245.112,503.773,244.344,518.541z M208.763,486.906c2.844-0.398,6.942-0.286,6.291-5.511
		c-1.006-8.057-2.496-16.043-5.321-23.699c-0.558-1.511-1.172-3.455-3.079-3.551c-2.09-0.105-3.05,1.774-3.861,3.4
		c-2.935,5.885-4.013,12.269-4.611,18.713C197.48,483.797,200.523,486.915,208.763,486.906z"/>
	<path fill-rule="evenodd" clip-rule="evenodd" fill="#FE3300" d="M542.945,412.574c-0.018,6.737-1.282,12.09-4.178,16.852
		c-5.722,9.414-12.835,17.771-20.406,25.74c-0.663,0.698-1.33,1.715-2.421,1.474c-1.261-0.278-1.013-1.565-1.088-2.483
		c-1.395-16.989-1.608-33.895,4.138-50.289c1.951-5.566,4.676-10.681,9.72-14.136c4.408-3.021,6.73-2.542,9.108,2.297
		C541.162,398.831,542.563,406.16,542.945,412.574z"/>
	<path fill-rule="evenodd" clip-rule="evenodd" fill="#FE3300" d="M208.763,486.906c-8.24,0.009-11.283-3.109-10.583-10.647
		c0.599-6.444,1.677-12.828,4.611-18.713c0.811-1.626,1.771-3.506,3.861-3.4c1.907,0.096,2.521,2.04,3.079,3.551
		c2.826,7.656,4.315,15.643,5.321,23.699C215.706,486.62,211.607,486.508,208.763,486.906z"/>
</g>
</svg>
